<svg version="1.1" xmlns="http://www.w3.org/2000/svg" viewBox="0 0 708.1194907817128 504.88492392194314" width="1416.2389815634256" height="1009.7698478438863">
  <!-- svg-source:excalidraw -->
  
  <defs>
    <style>
      @font-face {
        font-family: "Virgil";
        src: url("https://excalidraw.com/Virgil.woff2");
      }
      @font-face {
        font-family: "Cascadia";
        src: url("https://excalidraw.com/Cascadia.woff2");
      }
    </style>
  </defs>
  <rect x="0" y="0" width="708.1194907817128" height="504.88492392194314" fill="#ffffff"></rect><g stroke-linecap="round" transform="translate(10.529553137868788 10.003906250000057) rotate(0 343.794968821922 242.44050883597154)"><path d="M0.5 3.08 L684.09 -3.82 L687.81 481.72 L3.19 482.6" stroke="none" stroke-width="0" fill="#edb9b9"></path><path d="M1.44 -0.27 C205.54 1.53, 408.72 2.48, 686.44 -0.96 M-0.2 -0.25 C261.85 -0.83, 522.1 0.41, 687.03 0.55 M687.17 -0.82 C688.64 137.93, 687.45 273.54, 688.58 485.98 M687.51 0.4 C684.78 152.95, 685.48 306.46, 687.19 484.43 M687.31 486.24 C450.23 481.98, 208.41 481.18, -1.4 484.11 M687.63 485.63 C506.28 480.11, 325.72 480.49, -0.16 484.12 M0.04 484.49 C2.53 334.67, 2.46 186.91, -0.55 1.24 M0.11 484.85 C2.29 381.66, 3.27 280.06, -0.74 0.54" stroke="#000000" stroke-width="1" fill="none"></path></g><g stroke-linecap="round" transform="translate(10 10) rotate(0 343.794968821922 242.44050883597157)"><path d="M0 0 C0 0, 0 0, 0 0 M0 0 C0 0, 0 0, 0 0 M-0.78 5.08 C0.48 3.63, 0.69 4.68, 4.81 1.51 M0.46 6.3 C0.99 5.22, 2.72 3.33, 5.53 0.87 M1.53 13.2 C4.6 10.92, 4.48 2.47, 8.54 -3.04 M-0.22 12.5 C4.49 9.71, 4.33 5.8, 10 -0.16 M-2.74 20.18 C2.53 12.73, 6.94 9.03, 12.39 3.77 M-0.46 16.52 C5.86 14.62, 8.92 9.05, 14.22 2.24 M0.23 21.22 C3.75 20.08, 12.26 12.99, 22.4 0.36 M-1.65 24.11 C5.19 15.32, 12.71 8.83, 20.45 0.72 M1.11 33.83 C10.66 20.47, 16.57 10.85, 24.48 -3.4 M-1.67 32.31 C7.34 21.61, 13 15.57, 26.93 1.23 M0.57 34.11 C14.79 18.54, 25.77 4.54, 31.02 2.26 M-0.26 34.97 C13.36 21.92, 22.39 10.84, 31.3 1.4 M-1.4 40.32 C11.21 26.31, 30.73 8.36, 34.17 1.26 M-0.58 40.58 C7.83 32.94, 16.45 20.27, 37.61 0.05 M-0.42 52.16 C18.3 34.79, 27.77 14.8, 42 2.67 M1.31 50.1 C11.29 35.11, 20.22 23.56, 42.15 -1.34 M-0.15 54.42 C21.24 34.78, 31.78 13.81, 48.34 -0.26 M1.56 55.13 C17.31 32.53, 38.63 10.82, 48.64 -1.11 M-2.52 64.12 C15.88 45.86, 33.26 27.22, 52.95 -3.15 M-0.23 59.46 C19.29 38.8, 35.4 21.45, 54.01 0.06 M-4.17 70.14 C18.76 49.62, 33.28 23.54, 55.35 0.55 M0.1 69.28 C15.42 46.32, 33.35 27.67, 59.65 0.68 M0.62 76.52 C22.8 46.44, 47.42 17.09, 67 -1.45 M1.76 74.97 C15.51 55.05, 30.66 38.91, 65.13 -0.09 M0.95 81.72 C18.94 58.26, 43.36 35.26, 65.08 -1.29 M1.6 80.82 C21.94 55.85, 40.15 32.19, 67.51 -0.9 M-3.12 82.34 C28.47 48.33, 55.97 21.14, 76.74 0.04 M-0.85 83.31 C23.19 59.31, 43 36.91, 75.02 -0.73 M1.19 88.17 C19.65 68.81, 47.21 41.95, 76.88 -0.28 M-0.09 92.58 C23.39 64.3, 44.32 39.6, 78.36 -1.41 M2.98 93.87 C23.4 65.09, 44.35 39.41, 88.32 -3.94 M0.42 98.68 C25.46 68.01, 47.92 38.67, 84.42 -2.06 M-3.33 106.26 C26.59 69.61, 57.85 36.13, 87.63 3.58 M-1.21 105.35 C29.41 69.8, 57.71 39.45, 91.57 -1.67 M3.08 107.59 C21.15 85, 41.21 63.42, 97.33 -0.11 M1.25 111.75 C30.1 74.22, 60.1 36.48, 95.35 -1.52 M0.99 115.24 C27.57 84.45, 57.98 52.12, 99.69 -3.2 M-0.77 114.69 C29.1 79.24, 62.57 43.87, 99.77 0.26 M0.9 124.77 C43.15 72.65, 81.35 28.62, 104.91 3.27 M0.62 122.2 C25.27 90.67, 52.42 61.44, 107.05 -1.8 M0.62 129.63 C41.13 87.29, 69.87 45.82, 112.93 0.4 M-1.15 127.68 C23.13 98.08, 48.49 69.07, 112.85 1.05 M-1.7 132.42 C31.57 92.14, 67.21 50.68, 117 1.22 M-0.59 135.73 C48.52 80.25, 91.36 29.14, 115.37 1.92 M-2.52 140.17 C34.23 102.71, 61.18 64.07, 124.72 -2.12 M-1.56 139.86 C29.7 103.77, 63.02 65.31, 121.92 0.14 M2.66 144.04 C43.13 104.32, 80.58 55.83, 123.05 -3.01 M-0.25 144.75 C42.5 96.15, 84.38 44.43, 127.39 -1.06 M-2.64 150.58 C32.07 119.14, 61.55 85.55, 130.2 -0.68 M-1.68 151.85 C26.2 123.26, 54.26 90.65, 131.5 -0.26 M1.9 160.21 C33.47 123.35, 66.31 84.62, 139.72 -1.21 M0.29 157.41 C31.64 125.07, 65.41 88.19, 137.45 -0.35 M2.57 165.37 C46.68 114.69, 91.37 57.93, 144.68 0.87 M-0.08 165.82 C51.34 102.56, 103.61 43.67, 142.89 0.61 M0.46 173.97 C49.75 113.32, 97.78 56.98, 150.58 -0.16 M-0.71 169.74 C49.3 108.8, 104.33 46.27, 149.56 0.12 M0.26 177.18 C57.45 115.98, 109.12 51.03, 151.9 1.82 M-0.81 175.97 C32.22 138.51, 64.6 97.76, 154.98 -1.03 M-2.51 183.88 C55.28 119.68, 113.33 59.45, 160.3 -2.62 M1.2 183.15 C52.09 124.15, 105.53 61.39, 158.08 -0.28 M2.37 188.9 C61.32 119.79, 125.01 43.13, 161.79 -3.07 M-0.64 190 C54.58 124.27, 109.65 58.37, 164.54 0.33 M-2.52 196.33 C48.68 140.96, 92.63 86.75, 170.69 -2.83 M-1.37 193.85 C59.61 129.43, 114.39 64.34, 168.78 -0.04 M0.38 202.85 C60.27 125.75, 125.68 53.98, 174.8 2.53 M-0.17 202.01 C46.81 149.24, 89.32 98.67, 176.06 -1 M2.36 206.44 C67.98 123.3, 135.09 46.4, 181.39 -0.02 M1.63 206.9 C47.18 158.39, 91.11 108.17, 181.46 1.24 M1.4 212.83 C57.91 155.54, 109.21 95.47, 183.27 -1.81 M-0.79 214.04 C39.21 165.55, 83.15 116.57, 185.26 -1.74 M-0.74 218.57 C41.26 177.02, 80.92 133.05, 190.2 2.31 M1.21 220.54 C54.21 156.82, 110.64 92.06, 190.86 -0.09 M-1.39 226.41 C77.58 135.31, 156.59 50.52, 196.39 -2.6 M0.74 226.34 C52.65 166.39, 105.19 104.17, 195.21 0.03 M0.27 230.38 C66.33 157.95, 133.45 83.86, 199.22 2.93 M1.04 233.02 C54.19 169.95, 110.81 104.81, 202.01 0.63 M1.36 234.9 C39.06 189.67, 85.3 139.1, 208.97 2.3 M-0.41 238.2 C69.26 159.69, 133.43 85.62, 206.66 -0.63 M1.13 243.63 C77.44 152.28, 159.7 59.16, 214.09 2.56 M0.59 244.07 C56.46 174.59, 112.92 109.62, 211.78 0.96 M-1.07 249.69 C72.15 172.42, 145.72 91.48, 220.27 -0.03 M0 248.93 C49.73 188.54, 104.9 126.98, 218.32 -0.58 M2.45 255.47 C67.54 178.01, 134.61 101.1, 221.85 -1.88 M0.83 254.62 C78.47 167.23, 156.87 77.35, 223.67 0.64 M-1.88 264.2 C86.36 164.95, 172.68 66.28, 228.07 2.05 M0.42 262.85 C63.29 189.1, 128.2 116.94, 227.32 -0.62 M-2.03 270.26 C54.05 205.05, 114.58 137.7, 235.58 -1.07 M0.79 267.27 C65.26 193.5, 131.38 115.96, 233.73 1.23 M1.38 276.48 C65.29 200.46, 128.34 124.72, 238.31 0.62 M1.04 274.79 C85.79 173.96, 171.19 76.2, 238.87 1.09 M-0.03 279.16 C66.06 210, 131.48 133.53, 245.11 -0.38 M-0.22 281.72 C96.72 171.3, 193.12 59.33, 244.35 0.8 M0.17 285.73 C88.45 180.08, 182.03 77.2, 246.75 -2.02 M0.95 286.23 C97.61 180.88, 191.59 70.43, 247.98 0.76 M0.28 292.96 C61.54 218.81, 122.85 146.14, 254.55 1.81 M-0.19 292.46 C86.29 191.12, 176.4 90.21, 253.55 -0.61 M-0.29 297.37 C86.47 203.82, 168.13 111.15, 260.45 -0.42 M0.08 297.69 C99.65 184.73, 197.73 72.22, 258.61 1.13 M-2.11 306.08 C97.74 192.97, 195.36 78.66, 265.96 -0.71 M-0.72 305.22 C87.01 200.11, 176.67 97.96, 264.88 0.79 M-2.04 309.28 C56.06 244.48, 111.16 180.92, 271.24 1.86 M0.63 311.89 C79.78 214.77, 162.56 121.04, 270.92 0.98 M-0.2 318.88 C66.64 241.12, 134.88 162.85, 275.39 1.08 M0.2 317.01 C81.85 220.78, 162.33 128.29, 275.54 -1.08 M-2.06 323 C108.58 202.98, 217.8 79.25, 279.44 -1.03 M0.64 324.06 C74.2 235.24, 151.02 147.58, 281.47 0.74 M2.28 328.86 C103.59 206.5, 210.96 85.52, 286.48 -0.37 M0.79 328.83 C86.89 231.14, 170.99 133.56, 285.85 0.36 M-0.85 335.09 C75.69 243.25, 157.94 153.43, 292.03 -0.67 M-0.63 335.66 C91.05 228.56, 182.39 122.38, 292.06 0.14 M0.41 339.86 C85.75 244.5, 169.52 146.42, 297.12 1.52 M-0.48 341.64 C103.11 224.86, 207.6 105.81, 296.73 0.2 M0.53 347.09 C109.05 223.56, 217.88 100.79, 302.23 -0.35 M1.11 346.7 C67.27 271.56, 134.93 193.59, 302.85 0.27 M-1.7 353.96 C65.1 280.18, 130.95 203.4, 308.12 -1.33 M-0.56 353.52 C119.11 213.26, 239.8 72.81, 307.63 -0.61 M0.1 357.79 C119.24 221.37, 236.69 83.94, 314.07 -1.58 M0.98 360.15 C96.18 251.98, 189.99 145.57, 312.77 -0.35 M-0.12 365.54 C73.75 281.91, 142.54 200.19, 319.03 -0.59 M0.07 366.08 C105.53 247.29, 208.98 128.63, 318.65 -0.11 M1.26 371.4 C116.38 240.77, 230.06 110.11, 323.09 -1.21 M-0.03 371.95 C64.94 295.92, 130.17 222.3, 323.16 -0.06 M1.27 377.02 C85.76 283.02, 169.33 186.9, 328.52 -1.54 M0.44 377.89 C118.29 239.63, 236.4 103.91, 328.76 -0.51 M1.35 383.78 C109.75 253.66, 219.44 126.95, 334.21 1.1 M-0.38 384.12 C104.84 260.61, 211.17 138.99, 334.01 0.39 M1.56 391.35 C105.21 268.32, 210.99 147.58, 340.7 -1.43 M0.27 390.38 C85.97 288.26, 172.27 189.42, 339.15 -1.01 M1.5 397.67 C88.27 290.83, 175.95 188.34, 344.43 0.59 M-0.05 396.85 C130.74 247.67, 261.09 97.87, 344.24 -0.1 M1.27 403.68 C84.49 302.87, 168.02 201.62, 348.34 1.04 M-0.96 401.97 C106.56 279.91, 215.54 155.16, 349.12 0.95 M-0.89 409.59 C117.39 277.53, 230.63 145.44, 356.3 -0.1 M0.54 407.58 C89.48 306.05, 178.75 204.09, 354.9 0.04 M-1.36 414.32 C143.59 255.75, 285.18 93.86, 361.17 -0.55 M0.32 414.72 C129.37 264.56, 259.15 116.49, 360.5 0.4 M-0.42 421 C141.26 260.74, 284.67 96.94, 364.97 -0.57 M-0.76 420.38 C121.14 284.55, 242.43 144.59, 365.94 0.3 M-1.43 426.82 C125.39 287.81, 251.21 143.7, 370.01 0.26 M-0.19 426.06 C139.33 268.2, 277.29 109.37, 370.43 0.5 M-0.34 432.09 C136.32 277.99, 272.31 119.32, 377.38 0.59 M-0.43 433.37 C138.6 278.58, 275.26 120.67, 376.23 -0.37 M-0.79 438.58 C129.16 298.3, 252.86 154.3, 381.28 0.57 M0.75 438.57 C100.15 328.77, 199.5 215.28, 382.01 -0.01 M-0.46 446.32 C86.95 344.66, 176.35 238.97, 386.68 -0.61 M0.36 444.81 C87.11 345.04, 177.05 242.78, 386.7 -0.27 M0.25 451.96 C110.12 329.75, 217.73 205.54, 390.84 1.7 M-0.16 451.86 C100.03 329.12, 205.15 209.53, 392.44 0.28 M-0.92 457.8 C95.84 346, 194.87 233.23, 397.81 -0.79 M0.03 456.55 C134.9 303.47, 271 147.45, 397.22 0.15 M-0.86 464.87 C147.96 295.42, 292.88 128.11, 403.14 -0.47 M-0.55 462.82 C156.81 289.19, 309.21 112.97, 402.63 0.7 M0.32 468.03 C121.76 328.44, 244.97 187.29, 408.34 1.27 M0.67 469.89 C105.43 350.33, 207.42 232.94, 408.13 -0.02 M-0.02 475.24 C89.74 372, 181.82 265.73, 412.02 0.57 M0.47 474.86 C131.52 323.27, 264.29 170.66, 413.97 0.08 M0.44 483.46 C158.08 303.03, 313.61 121.93, 417.99 -1.82 M-0.57 481.62 C106.25 363.58, 210.81 243.75, 418.68 -0.62 M1.43 486.19 C150.46 311.56, 299.2 141.68, 423.14 -0.47 M1.47 485.45 C146.99 317.62, 293.92 148.56, 423.57 -0.07 M8.03 484.99 C129.24 344.92, 252.46 201.07, 428.72 -0.48 M6.34 485.46 C159.24 308.24, 313.29 130.42, 430.23 -0.37 M10.9 484.65 C145.43 333.35, 278.32 180.02, 434.73 -1.49 M11.26 485.6 C124.61 359.5, 232.17 235.14, 433.83 -0.32 M16.88 486.36 C162.19 318.05, 312.03 144.65, 441.48 -0.09 M16.55 487.25 C167.4 311.21, 320.14 134.71, 439.82 -0.09 M24.16 484.59 C167.3 318.88, 313.92 150.39, 444.04 0.61 M22.12 485.46 C182.45 301.08, 344.41 116.03, 444.45 -0.15 M26.28 485.73 C161.44 336.13, 289.99 187.02, 449.81 -1.85 M27.39 487 C175.03 319.08, 321.01 150.44, 451.41 -1.12 M32.35 487.22 C168.81 327.86, 303.38 170.17, 456.92 0.34 M32.8 485.69 C198.9 294.25, 365.46 101.93, 455.63 0.47 M39.01 487.16 C198.09 302.67, 358.38 118.38, 462.26 0.44 M38.02 485.87 C191.5 315.72, 342.56 142.4, 461.46 -0.48 M44.83 485.13 C213.21 291.62, 381.51 97.62, 465.42 -0.4 M44.15 486.48 C171.06 338.44, 301.05 188.65, 466.47 -0.55 M47.92 485.37 C151.9 368.18, 257.28 247.59, 472.92 1.94 M48.72 486.99 C207.37 305.28, 362.51 126.59, 471.05 0.26 M53.93 484.74 C221.22 297.35, 381.97 110.85, 476.59 1.28 M54.32 485.9 C163.17 359.47, 275.74 229.99, 476.58 0.63 M60.85 485.64 C169.27 359.02, 277.47 233.12, 483.24 -0.25 M60.32 486.59 C188.58 339.43, 314.72 192.89, 482.15 -0.03 M63.81 487.05 C218.1 313.82, 369.93 138.78, 486.86 -0.29 M65.16 486.31 C209.52 316.8, 356.14 146.92, 487.66 -0.67 M68.66 487.88 C162.4 382.49, 254.01 276.54, 491.73 0.62 M70.89 486.78 C159.71 382.29, 245.83 282.44, 492.05 0.86 M74.41 484.46 C186.64 358.81, 293.92 235.78, 498.1 -0.23 M75.82 486.39 C236.17 300.63, 399.31 113.99, 498.7 -0.03 M80.39 486.6 C243.77 296.98, 411.52 108.6, 502.92 -1.25 M80.66 486 C198.55 355.65, 314.04 223.69, 504.01 0.72 M87.88 486.37 C204.58 348.46, 324.38 214.17, 507.94 0.97 M85.96 485.92 C222.34 327.64, 360.78 168.55, 509.22 0.07 M91.29 486.9 C226.66 334.17, 357.4 179.05, 513.97 -1.05 M91.91 486.96 C188.75 375.83, 286.41 262.86, 513.78 0.02 M95.77 487.18 C221.3 348.29, 341.59 209.33, 519.43 0.62 M97.33 485.77 C215.77 350.84, 332.29 215.88, 519.21 -0.15 M102 485.28 C265.04 302.99, 426.59 118.01, 524.22 0.62 M102.65 485.49 C251.48 319.81, 397.78 151.98, 524.01 0.33 M107.82 485.5 C193.44 382.38, 281.86 281.58, 531.41 0.21 M107.37 486.31 C224.9 356.87, 338.27 225.25, 530.76 -0.95 M112.17 485.64 C215.52 368.96, 319.42 248.3, 535.21 0.96 M112.99 486.51 C201.13 379.48, 294.76 273.57, 534.65 -0.48 M116.77 487.33 C213.76 369.59, 309.36 258.47, 541.75 -0.94 M118.85 485.81 C233.03 354.38, 348.39 223.13, 540.1 0.08 M123.65 486.49 C220.62 378.77, 314.89 267.89, 544.3 1.38 M123.52 486.44 C288.35 294.61, 453.05 105.58, 546.15 -0.23 M130.39 486.88 C213.26 388.53, 299.91 288.09, 550.48 0.66 M128.61 485.26 C295.16 293.21, 462.16 100.74, 551.91 0.07 M134.08 487.34 C262.95 341.32, 392.65 191.4, 557.42 1.09 M133.74 486.01 C277.04 322.66, 420.76 156.88, 556.27 -0.45 M138.75 486.5 C239.82 369.72, 341.25 252.34, 563.04 -0.09 M138.14 485.87 C257.52 350.5, 378.24 210.78, 561.79 0.44 M143.32 485.48 C285.82 328.39, 425.38 169.55, 566.74 0.27 M145.26 485.45 C259.53 352.68, 379.55 215.85, 566.45 0.04 M148.91 487.29 C279.79 334.33, 413.88 181.44, 574.29 -0.87 M149.81 486.11 C291.43 324.25, 431.47 162.57, 572.26 -1.09 M156.61 485.61 C322.94 293.02, 493.47 100.35, 576.19 0.14 M155.38 486.07 C312.15 308.92, 468.74 128.46, 577.05 0.3 M161.78 487.2 C275.2 357.86, 386.42 229.83, 583.82 -0.84 M159.72 486.22 C267.64 368.66, 371.71 248.15, 582.45 -0.14 M165.39 487.05 C288.78 341.21, 409.07 202.01, 588.72 -0.29 M165.09 485.5 C292.17 340.43, 416.34 198.28, 588.92 0.52 M171.49 487.64 C333.23 299.12, 498.24 109.8, 592.19 -0.39 M171.52 486.75 C297.1 344.69, 422.97 201.22, 593.98 0.12 M176.11 486.89 C272.74 376.56, 367.46 265.51, 599.88 -1.04 M175.91 485.66 C295.97 348.18, 415 211.54, 598.61 0.36 M180.79 487.81 C289.57 361.13, 395.37 237.05, 603.38 0.12 M181.36 486.19 C299.08 348.86, 415.2 215.01, 603.8 -0.16 M187.82 486.44 C317.11 338.46, 449.12 187.71, 610.62 -1.09 M186.63 486.37 C314.9 338.87, 439.79 194.19, 609.57 0.6 M191.42 484.71 C313.03 350.24, 431.15 211.16, 614.64 0.61 M192.29 485.71 C330.56 328.53, 465.19 172.53, 614.79 -0.44 M198.57 484.8 C324.43 342.43, 448.99 199.19, 620.87 -1.64 M198.15 485.37 C302.55 364.69, 406.46 244.86, 620.96 -0.09 M204.14 485.95 C354.51 309.4, 507.54 132.78, 625.43 -1.23 M203.06 485.99 C326.29 345.14, 451.83 200.02, 625.58 0.91 M208.6 485.27 C380.31 295.15, 546.9 100.12, 629.6 0.31 M208.69 486.27 C367.16 305.11, 523.18 125.41, 630.82 -0.33 M212.3 487.33 C313.29 364.04, 416.78 245.44, 637.38 -0.28 M212.92 485.59 C309.9 377.82, 402.6 271.42, 635.26 0.2 M220.36 485.75 C342.9 339.95, 468.09 194.95, 641.14 -0.83 M218.52 485.79 C324.38 368.35, 427.2 251.66, 640.91 -0.86 M224.23 485.65 C364.97 323.21, 507.32 157.52, 647.95 -0.06 M223.24 485.79 C320.71 374.31, 420.31 260.8, 646.62 -0.35 M228.9 485.16 C376.84 316.96, 521.02 150.15, 652.44 -0.06 M230.07 486.56 C386.97 298.28, 547.44 113, 651.88 0.31 M234.48 485.11 C376.78 330.19, 514.07 170.05, 656.78 0.15 M234.24 485.77 C331.83 376.12, 425.91 266.83, 656.58 -0.6 M241.06 486.59 C386.78 316.85, 530.27 150.37, 662.66 -0.99 M239.83 485.91 C340.23 367.11, 441.17 249.98, 663.27 -0.15 M246.21 484.53 C394.06 319.08, 535.85 153.32, 668.91 -1.16 M245.1 485.79 C333.69 383.03, 422.13 281.21, 667.33 0.66 M249.23 485.3 C404.87 312.05, 559.05 134.15, 673.13 0.2 M250.54 486.21 C338.14 388.44, 425.84 288.74, 673.55 0.32 M255.16 486.9 C416.45 296.09, 577.28 110.13, 678.8 -1.27 M255.46 485.63 C402.37 316.09, 550.64 143.67, 678.37 -0.64 M259.58 484.88 C401.83 322.54, 540.73 161.65, 684.2 -1.29 M261.02 487.07 C349.88 383.39, 438.25 280.19, 683.26 -1 M265.67 486.62 C402.27 330.56, 533.76 179.9, 688.84 1.07 M267.07 486.17 C414.78 314.65, 563.15 145.29, 689.06 1.28 M272.1 485.79 C376.15 367.17, 477.95 249.77, 688.66 7.89 M271.82 486.67 C407.94 330.73, 541.39 177.53, 688.5 6.62 M277.9 485.5 C384.47 361.97, 490.53 237.42, 688.68 11.53 M277.38 486.17 C374.42 374.33, 470.83 263.32, 689.1 13.51 M283.22 485.54 C429.1 317.93, 574.46 150.29, 687.49 18.72 M281.44 486.74 C415.13 328.14, 550.44 172.91, 688.63 19.63 M287.78 486.35 C372.94 389.12, 457.52 289.68, 689.22 24.48 M287.55 485.52 C438.88 312.09, 588.83 139.28, 689.34 25.54 M291.6 485.83 C448.93 309.77, 603.99 128.58, 688.35 31.28 M292.07 486.91 C449.38 304.57, 604.24 126.26, 688.06 30.87 M299.87 486.56 C380.12 388.84, 465.03 291.17, 686.65 37.8 M297.62 485.18 C406.31 357.61, 516.93 230.51, 687.43 36.86 M304.49 486.16 C435.29 338.74, 563.25 189.11, 687.61 44.77 M303.22 486.28 C450.37 319.35, 595.53 151.93, 687.72 43.61 M308.12 484.53 C459.44 318.07, 606.28 148.01, 687.72 51.26 M309.75 485.62 C391.75 395.35, 469.96 304.03, 688.27 48.98 M315.33 487.04 C395.97 391.15, 478.07 298.8, 687.01 56.19 M313.3 486.69 C424.66 355.62, 537.42 226.08, 689.07 55.84 M318.26 486.08 C430.72 357.35, 543.98 230.2, 689.83 61.54 M320.19 485.23 C441.2 346.06, 564.26 205.71, 688.92 61.98 M326.16 486.76 C454.56 341.16, 586.79 192.1, 686.63 67.5 M324.39 486.26 C443.04 353.85, 558.02 220.83, 688.61 67.37 M331.85 485.2 C469.68 322.35, 610.9 163.58, 690.02 75.13 M330.5 485.07 C465.77 329.64, 600.15 175.03, 689.18 73.08 M334.85 484.63 C444.87 358.15, 555.44 231.77, 687.54 79.4 M335.91 485.82 C444.09 359.88, 556.2 233.53, 688.5 80.08 M339.84 486.5 C467.83 338.03, 593.55 196.23, 687.54 86.73 M341.11 485.72 C483.39 327.67, 621.76 169.45, 689.34 85.4 M344.62 487.35 C453.9 358.88, 563.87 230.61, 687.83 92.64 M346.16 485.68 C460.71 355.77, 571.54 227.69, 687.84 92.78 M351.36 485.98 C476.23 342.95, 603.13 199.38, 689.58 99.21 M351.39 485.65 C483.94 331.74, 616.6 177.46, 687.96 99.14 M357.74 486.64 C447.58 381.07, 539.63 271.84, 688.45 105.02 M357.14 485.67 C457.31 367.32, 559.77 248.34, 688.47 104.66 M361.77 487.06 C443.6 392.33, 525.78 297.93, 688.3 110.97 M362.8 486.04 C466.23 370.02, 566.44 254.49, 687.63 110.08 M365.78 484.72 C478.17 359.96, 588.69 234.02, 689.37 115.32 M366.52 486.74 C489.8 344.48, 610.58 205.79, 687.93 115.97 M371.1 485.15 C465.42 384.31, 553.45 280.75, 688.93 123.7 M371.77 486.72 C435.14 414.66, 498.2 341.24, 687.9 122.2 M378.88 484.97 C478.49 372.59, 579.33 256.37, 688.87 130.77 M377.33 486.04 C487.53 355.58, 599.33 227.9, 688.52 128.86 M383.95 487.86 C453.89 409.35, 522.16 332.1, 689.98 136.11 M382.1 486.3 C470.2 386.62, 559.01 285.63, 687.86 135.15 M389.56 485.35 C481.72 377.6, 573.65 269.12, 689.44 140.32 M388.34 486.9 C458.18 403.62, 531.82 319, 688.33 141.13 M394.8 485.33 C477.5 392.03, 561.49 296.87, 688.44 147.74 M392.96 487.02 C488.19 383.99, 577.67 279.57, 688.91 145.96 M399.15 484.5 C468.1 403.65, 537.31 319.85, 686.72 154.01 M398.55 486.89 C493.61 376.22, 592.28 262.88, 689.22 154 M404.5 486.08 C497.67 376.9, 595.45 268.46, 686.82 160.11 M404.77 485.96 C501.41 369.87, 601.43 255.8, 688.67 159.27 M408.05 486.29 C501.99 378.59, 592.11 272.34, 687.44 163.63 M409.56 486.55 C491.05 389.22, 574.23 291.71, 688.69 165.3 M412.76 484.77 C497.16 384.8, 584.26 286.64, 689.05 169.71 M414.39 485.36 C482.14 411.94, 547.7 335.34, 689.14 171.19 M419.85 487.96 C485.06 409.14, 548.29 337.15, 689.61 178.19 M419.56 485.86 C505.05 386.77, 589.5 289.23, 688.79 178.34 M426.96 485.31 C480.56 415.77, 540.74 349.02, 687.12 185.34 M425.5 487.24 C514.98 387.25, 602.23 286.4, 688.96 183.4 M432.73 487.6 C512.81 394.08, 590.24 303.73, 688.66 192.28 M431.72 486.4 C510.51 388.34, 592.5 295.58, 687.44 190.19 M435.47 484.44 C516.94 392.1, 600.55 294.29, 689.66 194.44 M436.17 486.16 C518.38 394.99, 600.41 300.57, 688.03 196.28 M442.97 484.43 C519.39 393.96, 599.22 305.22, 689.38 203.24 M440.9 486.87 C534.48 381.15, 624.96 274.64, 687.44 201.43 M447.58 484.75 C530.84 391.55, 613.22 292.92, 690.56 208.27 M447.35 487.2 C503.8 419.52, 565.13 350.26, 689.52 207.01 M454.69 484.29 C530.75 395.69, 608.8 306.84, 688.64 212.17 M451.93 484.91 C518.78 408.22, 582.64 333.41, 688.16 214.56 M457.26 485.76 C520.78 408.19, 589.52 334.91, 690.63 221.98 M458.39 485.3 C525.61 409.2, 589.75 334.78, 686.96 219.96 M460.56 485.11 C523.9 408.69, 584.99 338.92, 687.16 226.4 M463.38 484.87 C549.68 389.56, 633.3 292.23, 687.81 225.48 M466.44 488.58 C547.22 391.18, 625.7 296.5, 685.82 234.43 M466.65 487.09 C541.37 404.96, 613.78 322.96, 689.13 231.68 M472.32 486.16 C540.89 402.29, 614.5 322.82, 689.56 239.75 M474.47 485.5 C548.56 403.74, 622.96 317.6, 687.86 239.54 M475.69 485 C542.16 410.06, 612.07 332.97, 689.95 242.97 M478.36 485.47 C528.7 433.75, 576.66 375.49, 688.19 245.36 M484.05 489.11 C551.14 411.97, 612.38 334.24, 687.36 253.21 M484.48 485.18 C562.85 394.29, 644.34 299.12, 687.47 251.41 M489.65 484.82 C549.9 413.74, 613.13 337.11, 688.92 257.17 M490.04 485.78 C567.06 395.7, 644.24 306.32, 688.31 257.08 M495 483.52 C561.51 404.2, 638.94 319.6, 688.71 261.5 M492.65 487.61 C552.27 420.39, 609.09 355.97, 688.6 263.42 M499.72 483.16 C538.95 444.54, 573.65 399.35, 688.62 265.81 M498.57 487.27 C558.05 417.88, 617.21 351.39, 689.24 267.42 M506.34 486.33 C551.47 436.09, 597.91 380.94, 686.67 275.24 M506.1 486.3 C565.15 418.74, 620.85 350.37, 689.28 273.71 M512.76 488.87 C554.39 430.37, 605.42 376.05, 687 283.67 M510.73 484.93 C553.69 433.66, 600.89 381.14, 687.88 279.94 M518.22 486.38 C576.65 409.34, 646.04 333.58, 691.08 288.69 M515.68 487.85 C564.6 426.28, 614.84 368.94, 688.94 287.79 M521.7 488.17 C563.72 428.81, 609.35 376.59, 688.24 295.02 M522.37 484.97 C557.18 440.09, 594.08 398.58, 686.98 292.16 M528.71 486.05 C572.67 432.52, 613.12 383.75, 691.42 297.31 M525.1 485.61 C560.88 450.3, 593.99 413.15, 687.99 297.8 M529.77 487.49 C573.1 439.94, 612.87 394.38, 686.16 306.47 M533.11 486.74 C588.65 422.56, 643.21 358.01, 688.59 305.95 M533.55 483.38 C576.23 441.15, 614.11 395.16, 686.5 312.38 M536.24 487.96 C584.69 426.98, 637.26 368.3, 687.32 311.45 M545.4 482.54 C583.9 433.4, 628.33 389.8, 686.13 319.97 M543.63 484.98 C590.81 435.61, 634.75 383.21, 689.95 318.07 M546.72 485.38 C600.33 429.04, 652.13 368.64, 688.88 325.55 M548.85 485.75 C594.15 433.66, 641.55 379.9, 687.57 323.52 M554.52 484.92 C594.02 433.18, 641.87 382.79, 692.03 332.86 M552.24 486.84 C592.41 437.94, 634.6 392.62, 689.03 330.84 M560.37 487.95 C593.16 447.11, 625.7 400.12, 686.51 339.59 M556.38 485.54 C606.65 428.09, 654.69 372.8, 688.47 336.7 M560.75 488.2 C587.12 460.28, 609.37 427.88, 690.78 345.38 M561.71 484.46 C598.03 445.23, 635.98 406.18, 687.67 342.9 M569.78 488.19 C607.82 436.11, 655.26 383.84, 687.22 350.43 M568.08 486.41 C616.71 434.15, 659.53 382.31, 687.78 348.07 M574.33 486.72 C617.01 442.13, 656.91 390.71, 689.17 356.95 M573.13 487.27 C608.78 440.8, 649.78 396.4, 687.52 352.65 M576 485.74 C614.85 435.76, 657.73 388.91, 688.95 357.3 M579.43 485.58 C623.85 438.83, 666.68 389.36, 688.29 361.22 M587.34 485.36 C619.12 446.41, 658.88 397.18, 691.58 365 M584.29 484.07 C613.44 453.26, 639.93 418.28, 689.48 368.07 M593.64 482.86 C614.33 463.34, 633.69 429.87, 686.41 370.46 M590.93 487.12 C608.25 462.97, 630.87 441.42, 689.48 371.36 M596.5 484.39 C634.21 445.8, 668.43 399.93, 692.13 376.27 M593.66 487.05 C620.08 458.18, 644.82 432.29, 688.3 378.95 M602.83 484.29 C620.5 460.8, 644.75 440.05, 689.79 384.41 M600.35 485.83 C630.83 449.98, 662.03 414.92, 690.03 386.14 M605.97 484.3 C630.64 454.76, 661.2 420.14, 690.43 392.03 M606.95 484.88 C636.05 447.66, 669.82 409.57, 687.98 389.87 M613.18 489.31 C623.89 467.76, 640.52 451.14, 688.79 398.42 M610.67 487.27 C634.87 459.51, 659.25 435.5, 687.92 398.27 M615.47 490.36 C634.47 460.75, 655.93 438.67, 690.95 400.78 M617.13 487.26 C637.73 461.82, 659.9 432.37, 689.13 404.88 M623.81 483.66 C644.78 458.24, 672.24 431.4, 687.29 405.48 M622.16 487.76 C636.56 466.29, 654.58 449.07, 687.02 410.41 M622.88 485.57 C639.15 468.32, 657.24 453.09, 689.61 415.29 M627.06 485.87 C650.28 458.74, 674.54 429.86, 687.56 416.53 M631.33 487.61 C646.41 470.52, 665.7 449.62, 686.65 417.12 M632.33 486.34 C651.3 463.77, 671.23 442.04, 688.46 420.02 M639.55 487.44 C652.55 475.91, 663.3 459.22, 685.87 429.05 M636.89 487.13 C654.22 468.3, 670.18 449.01, 690.37 426.38 M645.86 483.91 C653.96 468.36, 668.28 455.49, 685.07 432.08 M643.91 484.84 C654.59 473.43, 665.24 464.29, 689.98 432.02 M650.35 483.99 C661.56 476.95, 667.84 464.46, 685.36 437.33 M647.99 488.24 C660.97 469.72, 676.52 450.61, 686.56 438 M651.03 489.82 C661.97 477.94, 670.22 468.74, 688.25 449.37 M652.93 487.8 C668.6 471, 679.3 457.89, 688.5 447.84 M661.65 489.71 C667.05 474.14, 682.13 464.2, 691.19 453.89 M658.99 485.13 C665.97 477.08, 674.92 466.29, 690.38 449.69 M667.94 485.1 C669.26 481.64, 678.49 475.01, 689.39 456.75 M664.63 486.53 C673.51 476.89, 679.07 470.56, 688.25 457.92 M669.32 489.61 C674.95 478.54, 680.37 475.02, 687.33 463.73 M669.76 484.48 C673.71 481.4, 679.39 474.72, 688.69 463.27 M675.21 484.01 C679.14 480.65, 682.39 477.87, 687.85 467.74 M673.51 487.1 C677.83 479.69, 683.65 476.68, 687.37 470.69 M681.68 486.86 C683.27 483.2, 683.84 478.97, 688.87 476.21 M680.85 487.2 C680.87 483.4, 685.55 481.79, 687.8 476.81 M686.28 486.19 C686.96 484.43, 688.38 482.05, 688.63 482.12 M685.88 485.95 C686.95 484.2, 688.18 482.49, 688.81 481.87" stroke="#d14d4d" stroke-width="0.5" fill="none"></path><path d="M-0.07 -0.31 C178.7 2.95, 359.61 3.1, 687.94 0.05 M0.7 -0.51 C162.69 0.44, 324.5 0.72, 686.79 0.32 M688.21 1.66 C692.09 192.16, 689.44 385.86, 687.55 485.37 M687.87 0.36 C685.13 131.9, 685.32 261.75, 687.23 484.56 M688.91 483.98 C473.32 479.77, 259.57 479.18, -0.15 484.32 M686.95 485.47 C470.64 489.72, 254.14 489.53, -0.3 484.79 M-0.88 485.95 C-1.18 317.22, -0.32 149.37, 1.16 0.69 M0.2 484.25 C3.6 320.31, 4.84 157.18, 0.46 0.16" stroke="#000000" stroke-width="1" fill="none"></path></g><g stroke-linecap="round" transform="translate(73.80108445979067 67.49308491402837) rotate(0 274.7698344597907 193.76472758597163)"><path d="M2.98 2.53 L546.03 2.67 L549.21 388.58 L1.26 383.7" stroke="none" stroke-width="0" fill="#d6d6d6"></path><path d="M-0.4 -0.86 C154.89 -3.33, 306.36 -3.39, 549.61 -0.93 M-0.57 -0.23 C161.58 4.01, 323.54 3.09, 549.47 0.45 M548 -2.06 C550.15 145.13, 550.01 293.35, 548.44 385.54 M549.46 0 C549.25 113.99, 550.33 227.43, 549.68 386.97 M550.82 386.43 C433.96 388.61, 318.21 390.15, 0.64 386.97 M548.77 386.8 C438.12 389.89, 325.89 390.99, 0.5 388.23 M-2.02 386.6 C-0.61 288.95, -4.02 192.56, -2.31 -0.54 M-0.34 388.66 C-0.8 302.57, -0.98 217.34, 0.08 0.53" stroke="#000000" stroke-width="1" fill="none"></path></g><g stroke-linecap="round" transform="translate(71.21875 64.546875) rotate(0 274.7698344597907 193.76472758597157)"><path d="M0 0 C0 0, 0 0, 0 0 M0 0 C0 0, 0 0, 0 0 M1.18 7.95 C1.48 3.97, 4.57 3.34, 6.51 0.46 M-0.3 6.77 C1.23 4.63, 2.48 2.37, 4.61 -0.04 M0.03 10.58 C3.61 6.01, 6.5 6.22, 12.17 1.08 M-0.34 10.93 C3.41 9.82, 4.23 4.28, 10.42 1.12 M0.47 19.73 C0.78 16.64, 12.18 8.02, 18.72 0.61 M-0.81 17.87 C5.78 10.31, 13.82 6.04, 16.61 -0.21 M-2.59 24.82 C6.69 12.99, 11.69 5.97, 22.33 0.47 M-0.74 26.06 C5.06 16.87, 12.33 11.32, 19.98 1.81 M-0.98 26.89 C9.27 20.62, 20.15 11.32, 27.02 1.41 M0.44 29.4 C5.3 23.91, 12.18 14.6, 25.22 0.32 M2.63 36.38 C3.93 29.09, 19.1 14.89, 35.18 3.23 M-0.42 38.37 C8.11 28.73, 12.23 22.35, 33.39 0.28 M1.73 42.1 C9.35 34.4, 17.12 18.09, 35.72 2.11 M-0.81 42.55 C11.06 30.33, 18.95 18.37, 36.07 1.2 M0.99 52.48 C11.19 36.74, 26.61 21.36, 42.35 -0.48 M0.99 49.33 C9.82 36.87, 19.22 27.08, 44.15 -0.31 M-2.14 57.25 C12.21 38.48, 28.13 22.07, 49.31 -0.67 M2 55.19 C10.41 41.33, 19.79 29.98, 46.08 -0.06 M2.34 64.52 C13.22 45.74, 26.3 25.09, 53.62 0.7 M0.78 60.2 C19.06 37.51, 37.23 15.9, 52.59 0.19 M2.52 70.45 C23.46 43.88, 41.47 23.78, 58.81 3.18 M1.53 67.22 C15.3 50.32, 27.53 34.94, 58.95 -0.71 M3.68 76.59 C18.14 57.21, 28.51 36.63, 65.23 -0.36 M-0.38 72.72 C21.94 47.09, 43.4 22.49, 65.74 -0.85 M3.28 83.06 C23.08 58.96, 43.49 30.58, 65.72 -2.71 M-0.87 77.49 C21.62 51.14, 48.24 26.31, 69.1 -0.74 M-3.46 82.33 C30.76 57.12, 54.26 19.26, 75.94 2.7 M0.95 85.9 C21.31 59.3, 45.29 36.88, 73.44 -0.81 M-3.77 88.21 C21.94 63.64, 48.94 36.72, 82.05 2.77 M0.98 92.4 C18.5 67.97, 36.15 48.33, 77.72 1.1 M-1.75 97.6 C24.13 66.87, 54.5 40.95, 87.01 -2.24 M-1.71 96.76 C20.31 72.21, 46.12 46.73, 84.22 0.2 M-3.36 99.75 C30.65 65.68, 64.76 34.13, 90.31 -1.76 M0.62 102.82 C23.78 72.19, 52.78 42.85, 88.74 -0.69 M-1.37 109.51 C27.12 76.66, 63.35 39.44, 94.2 2.17 M-2.1 109.28 C31.94 73.81, 65.5 34.18, 97.4 -0.7 M-1.74 113.05 C25.94 90.33, 54.99 58.62, 99.5 -0.18 M-1.64 116.89 C32.82 78.73, 66.15 44.16, 100.85 1.65 M-3.95 120.93 C32.78 86.63, 59.47 51.38, 103.77 -1.19 M-1.21 122.98 C29.54 87.45, 59.73 57.05, 107.05 -1.12 M-3.31 129.75 C32.84 94.41, 64.17 56.54, 113.13 -2.88 M0.61 128.72 C45.05 74.02, 86.15 25.01, 111.48 1.12 M0 131.48 C38.72 90.49, 74.37 53.84, 115.82 0.8 M-0.59 133.86 C27.75 97.96, 61.58 65.07, 117.3 -0.69 M0.01 138.69 C42.71 94.52, 79.58 45.13, 121.22 1.26 M-1.51 139.46 C27.19 108.12, 59.51 69.94, 120.81 -0.02 M-1.5 146.28 C43.22 93, 90.85 40.16, 126.91 0.5 M0.94 147.16 C53.01 91.77, 99.48 34.87, 125.04 -0.03 M0.73 152.49 C43.95 102.96, 90.98 56.6, 132.29 -2.83 M-0.09 153.58 C40.85 101.16, 85.4 52.13, 131.86 1.54 M-2.33 160.47 C40.71 114.17, 76.05 65.55, 134.55 -1.71 M-1.22 158.24 C27.92 128.38, 55.17 97.63, 136.1 -0.19 M2.51 164.53 C34.65 123.34, 67.04 82.76, 141.52 -1.73 M0.14 164.61 C34.81 120.79, 73.97 78.4, 142.22 -0.79 M-0.87 172.97 C39.19 122.51, 83 74.7, 146.15 -1.46 M0.44 169.35 C39.85 120.3, 83.96 72.03, 147.15 1.75 M-2.98 174.12 C40.67 125.67, 84.96 71.69, 153.76 0.31 M1.13 174.88 C31.34 145.11, 61.96 108.56, 152.38 -1.58 M-1.5 182.62 C37.51 134.95, 79.74 91.71, 156.99 2.97 M-0.51 181.92 C49.44 123.53, 97.39 65.29, 158.17 -0.48 M-2.03 192.35 C48.92 124.86, 103.94 63.91, 162.22 -2.42 M-0.47 188.2 C51.04 124.34, 107.21 62.57, 164.97 -1.59 M0.79 192.19 C44.74 144.79, 92.91 88.07, 171.39 -1.77 M-0.48 194.43 C34.56 155.55, 67.42 114.88, 168.02 1.45 M2.26 199.49 C36.79 161.08, 72.06 117.01, 175.55 2.06 M-0.35 200.38 C52.13 135.7, 108.77 70.09, 174.97 -0.49 M-0.11 208.4 C62.99 133.31, 126.71 59.06, 182.57 1.79 M-0.38 206.47 C60.48 135.88, 126.13 64.72, 180.92 0.23 M1.14 215.11 C48.33 154.57, 103.58 93.77, 184.88 -2.11 M-0.55 213.81 C51.77 151.94, 103.13 93.25, 186.2 -0.11 M-2.27 217.92 C43.96 167.32, 91.3 116.52, 192.53 2.97 M0.38 219.43 C74.92 134.55, 149.05 45.65, 190.62 -0.52 M1.24 224.28 C51.79 164.18, 109.86 95.77, 196.15 -1.1 M-0.27 224.99 C76.32 136.45, 152.86 52.12, 195.17 -1.1 M-0.33 234.19 C77.42 143.06, 153.5 51.35, 199.07 2.29 M0.41 233.22 C53.56 172.28, 107.63 108.92, 202.35 0.31 M-1.29 235.03 C53.29 176.58, 104.21 116.67, 204.91 -1.73 M0.32 237.42 C58.52 167.55, 117.58 98.34, 206.51 -0.32 M-0.88 241.24 C53.43 188.28, 100.08 132.57, 213.18 -1.55 M1.39 245.12 C72.02 168.07, 138.18 88.24, 211.44 -0.99 M2.22 247.87 C79.97 159.19, 163.92 64.57, 219.95 -0.68 M-0.46 250.27 C61.46 175.14, 125.18 103.79, 217.86 0.35 M-1.97 255.21 C66.45 173.07, 132.75 96.99, 224.5 -0.58 M-0.82 255.66 C46.47 204.34, 92.38 151.52, 223.71 1.24 M1.7 264.65 C83.5 167.65, 164.69 77.16, 229.43 -1.99 M-0.37 261.51 C83.47 162.69, 168.38 65.51, 229.03 0.1 M-0.32 267.71 C76.9 182.93, 152.59 91.38, 230.92 0.08 M-0.3 268.71 C55.24 207.9, 106.25 148.58, 233.07 -0.23 M-1.56 272.28 C68.24 202.19, 131.79 124.82, 239.32 0.14 M-0.04 274.74 C84.02 179.84, 167.39 82.42, 238.38 -0.2 M-2.12 280.64 C69.86 197.18, 144.06 113.05, 242.14 -0.55 M-0.81 281.64 C77.02 191.4, 157.7 100.16, 243.44 -0.87 M0.46 286.54 C82.03 193.11, 159.81 101.91, 248.38 2.16 M-0.23 285.88 C83.26 195.9, 164.58 102.16, 248.07 1.18 M0.15 292.01 C54.08 231.63, 110.23 171.99, 253.59 -0.03 M0.29 293.21 C92.59 186.63, 181.96 86.03, 255.02 -0.85 M2.09 296.17 C62.4 231.39, 116.14 162.07, 259.91 1.62 M0.04 299.16 C67.9 221.61, 133.89 146.14, 259.77 -0.75 M-1.04 305.27 C93.62 203.11, 183.82 98.14, 262.88 -2.23 M0.48 305.09 C98.01 189.15, 197.32 73.23, 265.03 0.37 M-0.74 313.15 C74.2 229.39, 143.72 150, 269.74 -1.08 M0.2 310.72 C92.91 199.14, 191.55 87.74, 270.29 0.87 M-1.49 317.03 C96.53 207.55, 190.35 99.96, 273.63 1.17 M-0.29 316.57 C98.79 201.2, 199.07 86.46, 274.77 -0.37 M0.22 323 C67.84 246.79, 133.98 171.23, 279.95 1.46 M-1.07 322.21 C87.93 220.08, 177.32 117.89, 280.54 -0.16 M-0.53 327.3 C111.54 201.09, 224.84 73.14, 286.03 -0.6 M-0.63 329.75 C90.07 222.3, 181.18 120.2, 286.73 -0.96 M-0.7 334.49 C87.94 232.62, 172.92 134.23, 289.5 2.13 M0.72 335.59 C76.66 246.92, 155.8 157.85, 290.65 -0.37 M-0.93 343.35 C57.86 269.66, 119.48 201.12, 297.54 -2.02 M-0.68 341.88 C89.27 236.57, 181.71 131.79, 296.53 -0.99 M1.11 349.17 C104.01 233.76, 205.69 117.08, 302.47 1.47 M-0.25 346.78 C69.55 271.78, 138.33 193.49, 302.01 -0.12 M1.64 353.21 C74.47 270.85, 144.78 185.05, 307.27 0.2 M0.67 352.88 C86.76 254.98, 174.03 155.16, 307.35 0.42 M-0.18 360.1 C113.93 225.49, 228.13 94.22, 312.59 -1.13 M-0.32 360.13 C80.43 268.44, 159.63 177.5, 313.41 0.85 M-0.24 365.38 C90.1 265.85, 176.9 164.18, 319.03 0.7 M0.38 365.17 C76.35 278.78, 152.54 191.85, 317.78 -0.65 M1.18 371.47 C116.84 241.83, 229.97 109.52, 322.61 -0.51 M0.57 372.06 C93.92 265.27, 187.41 157.19, 323.35 -0.08 M-1.21 378.53 C80.16 285.24, 160.38 193.88, 330.37 0.71 M0.89 377.34 C78.93 289.27, 157.26 198.42, 329.42 -0.33 M0.03 383.54 C128.14 237.39, 259.88 87.96, 332.5 0.11 M0.67 384.41 C106.21 263.34, 214.64 139.58, 333.31 0.26 M2.19 389.18 C72.48 307.18, 146.29 224.67, 340.38 0.3 M1.96 388.76 C72.27 308.9, 142.57 228.46, 340.02 0.39 M6.94 390.13 C107.52 269.06, 210.54 150.66, 343.22 0.23 M5.83 389.04 C77.08 306.15, 148.07 224.76, 343.99 0.38 M11.01 389.3 C138 242.92, 269.51 92.28, 348.26 -0.88 M11.97 389.38 C121.32 262.57, 232.62 134.36, 349.49 0.34 M18.34 387.61 C114.42 278.26, 206.23 170.25, 353.59 1.52 M17.53 388.24 C110.36 286.23, 202.11 180.84, 355.67 -0.61 M21.77 390.39 C123.58 270.83, 223.77 152.8, 359.42 0 M22.12 388.56 C112.06 289.65, 199.83 188.88, 360.77 -0.23 M27.21 388.88 C99.72 302.12, 174.97 215.91, 366.61 1.42 M27.46 387.89 C126.23 275.8, 223.64 165.06, 366.52 0.09 M32.82 388.27 C110.69 298.01, 190.74 203.82, 371.9 0.64 M33.51 389.44 C136.07 265.65, 240.68 144.35, 371.11 0.07 M37.84 388.47 C161.06 248.67, 288.05 104.68, 376.69 -0.41 M38.74 388.23 C142.33 273.15, 244.37 155.4, 375.82 -0.61 M44.16 389.76 C113.66 308.73, 183.46 225.32, 382.22 0.18 M44.23 388.53 C131.74 289.23, 218.46 189.97, 381.15 0.8 M49.14 389.53 C152.47 270.12, 258.92 145.7, 385.63 1.06 M49.19 388.42 C126.64 301.84, 201.53 214.91, 387.13 -0.53 M53.59 387.93 C176.52 245.29, 303.93 101.85, 391.08 -0.01 M53.45 389.24 C168.85 260.32, 280.91 131.6, 392.6 0.41 M61.01 387.82 C185.63 241.34, 311.03 93.72, 396.22 0.28 M59.34 388.12 C131.06 302.22, 204.96 216.65, 397.13 -0.15 M66.33 387.61 C134.35 306.98, 208.55 222.87, 403.37 0.4 M64.64 389.05 C149.48 295.15, 229.66 200.38, 401.9 -0.54 M71.16 387.66 C144.07 306.2, 215.85 220.35, 409.09 0.31 M70.81 389.06 C176.53 265.3, 283.87 142.53, 408.39 0.53 M75.77 389.46 C199.18 249.68, 321.43 108.28, 412.2 0.76 M75.97 389.19 C191.56 257.28, 307.64 123.62, 412.95 0.59 M81.49 389.22 C159.73 298.76, 239.25 207.19, 419.42 -0.01 M81.53 388.71 C157.36 304.45, 231.6 220.04, 418.2 0.4 M85.91 389.92 C213.71 239.5, 344.74 88.41, 424.48 -0.59 M86.73 388.14 C176.31 282.71, 267.08 178.18, 424.4 0.56 M91.7 388.45 C213.53 251.98, 333.44 114.48, 429.82 0.36 M92.12 388.21 C182.28 281.98, 276.58 174.51, 429.71 0.48 M95.36 387.64 C223.18 238.73, 355.18 87.24, 435.3 0.11 M97.28 388.11 C196.18 272.61, 296.89 154.93, 434.35 -0.18 M102.5 389.87 C190.41 288.49, 275.5 190.96, 440.69 -1.73 M102.69 387.62 C206.36 266.32, 311.96 146.27, 440.81 -0.95 M106.93 389.86 C173.74 313.38, 241.69 234.51, 443.98 -0.8 M107.49 388.59 C237.27 238.07, 370.39 85.89, 445.24 -0.69 M112.38 387.45 C223.51 259.01, 339.92 126.81, 450.24 -0.82 M112.88 389.09 C249.93 236.69, 384.81 81.26, 450.47 -0.27 M118.01 390.04 C192.22 307.23, 261.9 225.59, 457.21 -1.57 M118.34 388 C237.64 250.08, 356.8 113.18, 455.78 0.5 M124.05 386.93 C246.25 247.59, 368.04 109.45, 460.88 1.12 M123.41 388.86 C219.11 275.89, 317.21 164.92, 461.96 0.21 M127 390.21 C238.83 260.72, 350.54 135.51, 466.69 -1.46 M128.7 388.44 C216.06 290.41, 304.34 189.31, 465.81 0.53 M134.17 390.61 C199.24 308.92, 267.64 230.67, 472.14 1.9 M133.85 389.26 C260.3 240.61, 390.54 91.14, 470.99 1.05 M139.72 388.23 C208.99 304.98, 282.48 222.38, 477.94 -0.71 M138.55 389.29 C223.29 288.92, 307.96 192.17, 477.84 0.25 M145.53 387.93 C240.19 278.59, 335.59 167.07, 483.34 -0.75 M143.63 389.21 C261.7 253.51, 381.98 114.39, 482.77 1.05 M150.16 387.34 C234.15 289.61, 317.76 192.16, 487.85 -0.59 M150.56 388.88 C258.84 264.98, 369.68 137.8, 487.49 -0.58 M153.6 388.8 C278.01 244.03, 402.55 101.39, 492.83 1.78 M154.51 388.82 C265.64 256.36, 379.13 123.71, 491.99 0.15 M159.73 389.79 C284.94 244.64, 408.97 101.4, 497.52 -0.14 M160.51 389.19 C277.22 251.36, 395.27 115.48, 497.9 -0.12 M165.07 388.55 C286.64 251.97, 404.25 115.8, 503.81 0.33 M165.23 389.56 C273.29 267.89, 380.36 143.32, 503.14 -0.33 M170.83 387.22 C245.76 300.63, 324.18 212.38, 509.07 0.58 M171.65 387.93 C250.88 296.4, 331.16 202.58, 508.48 -0.8 M174.85 387.93 C263.49 289.98, 352.73 186.29, 514.1 0.75 M175.6 388.56 C300.56 248.87, 421.51 108.82, 513.78 -0.21 M180.46 389.49 C261.69 294.56, 344.49 200.78, 519.19 0.52 M181.98 388.1 C313.01 233.44, 445.56 80.11, 519.76 0.21 M185.24 389.89 C282.93 284.27, 373.88 177.26, 525.67 1.49 M186.55 388.27 C313.74 243.18, 440.73 98.72, 524.2 -0.37 M193.03 389.44 C307.96 254.68, 424.92 119.7, 528.78 0.82 M192.17 388.4 C281.64 286.05, 368.4 186.88, 530.16 -0.12 M196.34 389.99 C298.07 273.37, 399.62 157.82, 535.16 0 M196.91 388.46 C315.72 256.19, 433.88 119.18, 535.76 0.39 M204.34 388.52 C276.41 303.33, 351.58 218.37, 539.75 -1.56 M202.37 388.04 C318.01 252.84, 433.41 120.57, 540.81 0.45 M209.25 389.16 C335.95 239.85, 466.27 94.11, 546.54 -0.89 M208.19 389.37 C316.29 259.82, 426.47 132.96, 546.15 0.56 M214.39 387.16 C303.9 283.52, 395.02 177.03, 551.15 -0.33 M213.88 388.31 C289.77 299.58, 365.39 212.2, 550.07 0.62 M219.69 387.35 C319.4 268.94, 421.81 152.63, 549.34 7.48 M218.22 388.56 C289.98 309.23, 361 228.2, 549.82 7.54 M224.19 388.03 C312.39 290.55, 394.23 191.63, 550.64 13.99 M224.26 387.82 C335.3 259.6, 446.26 130.64, 549.81 13.39 M230.81 389.96 C358.94 238.85, 487.5 92.74, 550.85 18 M229.12 388.87 C349.4 252.03, 469.99 113.39, 551.18 19.35 M235.8 389.67 C323.49 289.9, 410.24 188.07, 551.12 25.72 M235.44 388.91 C359.53 242.61, 483.3 98.82, 550.87 24.82 M240.17 388.35 C334.63 275.93, 434.07 165.09, 549.77 31.83 M239.27 388.87 C315.76 301.04, 393.13 213.07, 550.96 30.6 M245 390.11 C349.89 265.43, 457.09 143.31, 551.39 38.21 M244.78 388.55 C349.52 267.94, 455.31 144.97, 549.93 36.75 M249.62 389.44 C321.36 303.41, 397.31 216.83, 550.61 45.22 M249.85 389.26 C349.35 275.32, 445.48 165.24, 550.64 44.42 M253.73 390.92 C324.19 306.2, 395.71 223.07, 552.04 49.6 M256.39 388.81 C321.22 314.74, 387.66 238.33, 550.73 49.23 M262.84 388.68 C357.97 276.83, 454.05 168.94, 550.42 57.73 M261.73 389.55 C364.12 273.29, 467.18 154.46, 549.6 54.9 M267.56 387.23 C339.06 303.61, 410.47 218.39, 550.94 60.39 M266.28 389.41 C350.76 290.31, 440.17 188.91, 551.22 60.89 M272.97 387.52 C340.45 307.94, 407.32 226.77, 548.79 65.94 M271.07 387.68 C374.45 271.94, 476.14 154.18, 550.49 68.52 M278.2 388.06 C340.11 313.21, 403.12 242.41, 550.54 74.95 M276.15 389.74 C372.44 278.51, 470.65 167.34, 549.62 73.62 M281.85 386.39 C387.22 262.78, 495.32 142.19, 551.85 81.11 M281.38 388.49 C348.91 315.27, 415.16 240.07, 549.99 79.73 M285.95 389.4 C381.62 283.47, 471.94 172.99, 548.26 85.67 M287.36 389.75 C382.22 273.33, 483.31 159.59, 549.75 85.76 M293.23 388.98 C375.76 288.37, 462.67 190.43, 549.89 92.24 M293.84 389.29 C371.71 295.2, 454.08 201.18, 550.3 91.75 M297.51 389.63 C376.33 289.03, 462.19 197.41, 549.76 98.68 M298.47 387.75 C361.74 318.61, 423.3 247.09, 550.84 98.6 M303.37 388.5 C384.75 296.79, 469.2 201.56, 551.51 104.69 M304.27 387.57 C354.75 331.02, 404.07 274.14, 550.25 105.19 M307.58 390.18 C362.42 330.2, 415.33 270.97, 549.24 108.97 M309.41 389.98 C381.8 306.35, 456.11 219.87, 549.52 111.07 M314.5 390.42 C367.16 328.28, 413.93 274.05, 550.4 115.84 M314.45 388.77 C402.32 286.57, 490.45 187.87, 549.71 116.56 M321.74 391.16 C363.08 331.33, 410.68 280.71, 551.75 124.48 M319.3 389.1 C401.41 293.99, 480.25 200.17, 551.3 122.74 M325.59 389.02 C404.44 296.53, 477.21 207.27, 549.09 128.78 M325.72 389.56 C404.77 297.54, 482.75 207.31, 550.82 127.75 M332.15 391.04 C378.36 337.9, 423.8 281.7, 548.12 137.46 M328.96 388.07 C386.26 329.42, 440.25 268.13, 550.42 134.65 M337.15 386.88 C384.79 335.7, 431.73 281.64, 553.05 139 M336.02 389.63 C404.74 309.24, 475.18 227.94, 550.46 141 M342.48 386.24 C407.52 312.66, 477.66 234.94, 548.26 145.89 M341.32 388.46 C406.32 311.48, 470.53 237.98, 549.74 146.57 M345.85 390.98 C398.45 323.61, 453.64 261.42, 552.64 151.65 M344.92 389.52 C420.29 305.11, 495.75 217.69, 549.18 154.82 M353.12 388.3 C413.42 315.71, 481.85 241.5, 551.71 159.79 M350.1 390.07 C418.3 310.31, 486.54 232.23, 549.48 158.7 M354.97 390.46 C406.71 323.7, 459.99 264.27, 552.42 168.48 M356.28 388.56 C432.58 300.51, 507.29 214.2, 551.73 165.98 M360.33 390.58 C433.01 307.5, 502.47 224.6, 548.49 169.9 M362.18 387.57 C432.28 304.23, 504.92 219.52, 549.76 171.37 M366.15 386.94 C432.64 316.54, 494.81 243.45, 551.31 179.74 M366.44 387.67 C434.78 309.73, 504.02 232.9, 551.24 177.36 M374.31 389.66 C429.62 320.54, 485.32 258.71, 547.16 183.09 M372.03 388.33 C433.93 318.56, 496.63 243.74, 549.03 183.53 M374.72 389.17 C427.62 329.77, 481.11 268.32, 550.81 190.47 M377.56 388.21 C440.12 313.87, 500.72 244.26, 549.1 189.16 M382.85 386.1 C415.03 343.33, 447.91 304.43, 548.72 196.38 M381.97 388.87 C418.15 346.65, 457.03 302.86, 549.86 195.86 M384.73 391.09 C443.29 319.57, 503.24 254.6, 548.14 204.4 M388.56 388.59 C430.01 340.37, 474.54 289.96, 549.2 202.68 M394.15 391.84 C452.03 321.94, 516.97 251.1, 547.54 206.75 M393.65 389.57 C434.68 344.2, 471.29 303.23, 551.91 209.31 M396.12 390.44 C427.51 351.86, 463.55 310.66, 548.35 217.64 M397.13 388.04 C436.94 347.9, 471.83 305.73, 550.85 214.39 M405.93 390.66 C451.05 333.99, 499.35 282.82, 553.89 221.54 M404.36 388.52 C444.32 340.31, 486.23 292.21, 551.04 221.75 M411.03 389.44 C457.25 329.87, 509.94 274.77, 547.44 228.17 M410.11 390.3 C452.36 331.82, 501.3 277.84, 550.71 226.03 M417.79 390.45 C456.1 344.04, 489.96 303.69, 553.18 232.62 M413.51 388.22 C461.5 337.34, 504.99 286.01, 552.14 231.84 M419.58 388.36 C471.98 334, 512.31 281.25, 547.97 241.48 M419.59 390.01 C450.82 351.67, 482.08 315.76, 548.77 239.66 M424.12 390.66 C467.56 332.58, 517.05 281.42, 552.76 243.82 M426.72 389.01 C455.11 356.9, 479.57 328.3, 551.72 243.55 M427.84 385.1 C475.77 335.49, 518.33 288.44, 549.33 252.05 M430.49 389.28 C463.13 347.89, 498.97 307.4, 548.94 250 M436.6 387.51 C478.91 340.44, 519.97 297.95, 549.31 255.09 M437.46 388.51 C458.62 362.46, 481.09 337.44, 549.92 256.9 M437.81 391.1 C470.48 360.36, 499.79 327.29, 552.12 260.22 M439.24 388.45 C478.59 347.24, 514.71 304.15, 549.94 264.72 M446.62 391.38 C470.65 357.63, 494.82 330.26, 548.73 266.08 M445.24 389.43 C473.68 360.01, 500.1 329.74, 552.32 270.98 M453.74 391.24 C471.12 369.61, 496.05 342.74, 551.21 272.37 M452.9 388.88 C476.47 358.95, 499.33 332.14, 548.55 273.57 M455.67 385.88 C483.55 364.03, 501.55 340.19, 551.79 281.16 M456.49 387.78 C493.77 349.9, 527.39 306.39, 551.75 281.41 M458.41 391.88 C499.01 345.19, 530.75 308.86, 553.9 290.11 M461.29 389.21 C492.87 350.76, 526.1 314.7, 550.27 289.3 M467.77 392.13 C485.25 367.65, 505.76 351.23, 553.74 294.21 M468.4 388.82 C491.14 365.76, 512.01 338.6, 551.75 293.07 M469.06 388.88 C499.38 361.6, 517.56 334.8, 552.05 298.81 M472.95 389.32 C494.34 364.46, 518.48 340.28, 549.38 300.17 M480.76 389.49 C493.98 368.9, 513.15 347.76, 551.68 305.34 M476.24 387.79 C496.97 367.64, 511.47 349.27, 549.98 304.85 M481.46 391.62 C506.83 363.3, 528.08 334.41, 548.66 312.58 M483.21 390.34 C505.37 365.32, 522.97 346.57, 551.56 310.94 M488.97 392.58 C509.2 366.96, 528.56 343.95, 547.19 317.91 M488.01 390.95 C506.73 368.12, 524.53 346.1, 548.81 318.61 M493.86 390.97 C510.64 367.63, 525.53 357.8, 549.25 327.04 M494.11 386.65 C512.26 368.77, 529.54 348.31, 549.24 323.6 M503.24 391.77 C516.37 367.68, 540.03 339.85, 550.36 327.04 M500.49 388.06 C516.97 370.95, 532.01 352.07, 551.39 331.74 M507.01 391.28 C522.23 369.5, 537.79 344.88, 553.16 336.06 M506.46 389.86 C520.32 369.76, 536.68 353.39, 548.96 338.17 M513.6 390.17 C519.45 372.47, 538.58 362.51, 550.46 340.6 M509.86 389.36 C518.55 378.81, 529.32 367.52, 552.29 342.11 M516.19 386.43 C522.94 374.67, 535.55 358.85, 548.22 344.76 M515.83 388.88 C522.81 379.93, 530.98 370.85, 549.95 349.64 M520.53 388.4 C530.5 377.96, 531.18 375.96, 547.23 355.96 M519.06 390.36 C531.57 373.77, 542.23 360.53, 548.8 352.86 M527.14 391.78 C530.37 381.46, 537.65 375.34, 546.78 358 M524.52 389.81 C532.48 380.78, 543.13 372.48, 552.25 360.51 M535.06 392.59 C539.81 377.41, 549.01 376.39, 550.29 368.74 M529.76 387.82 C536.68 383.7, 542.17 377.11, 548.33 365.12 M540.12 388.2 C537.47 381.86, 546.43 380.72, 548.35 369.4 M537.59 388.05 C540.53 381.85, 545.66 377.79, 551.28 373.81 M539.78 389.81 C543.21 387.92, 547.02 380.66, 549.93 378.23 M542.19 388.12 C545.66 385.49, 548.88 381.99, 550.77 379.02 M548.06 387.84 C548.97 387.48, 549.15 386.52, 549.78 385.02 M547.3 388.38 C548.51 387.51, 548.61 386.63, 550.35 384.94" stroke="#9d9d9d" stroke-width="0.5" fill="none"></path><path d="M0.13 -0.42 C138.89 3.7, 279.39 3.29, 551.08 0.7 M0.63 -0.16 C147.54 3.41, 296.33 4.09, 549.24 -0.59 M549.11 -2.26 C554.02 144.08, 552.76 288.71, 547.67 388.43 M549.92 -0.8 C551.71 105.48, 550.55 211.34, 549.76 387.31 M550.83 386.19 C339.36 386.77, 130.96 387.05, -1.47 388.38 M549.94 388.15 C344.83 389.04, 138.81 389.5, 0.28 388.14 M-0.15 387.11 C4.71 246.31, 4.76 104.61, 1.98 -0.37 M0.65 387.55 C0.36 249.45, -0.38 109.68, 1.03 -0.21" stroke="#000000" stroke-width="1" fill="none"></path></g><g stroke-linecap="round" transform="translate(134.25030320979067 118.69636821097163) rotate(0 211.6563986820513 149.2578125)"><path d="M-0.41 -1.68 L424.25 0.65 L425.06 297.72 L-0.61 300.4" stroke="none" stroke-width="0" fill="#c6e797"></path><path d="M0.2 0.41 C128.08 -0.18, 256.44 -1.01, 424.31 0.63 M-0.26 0.02 C151.64 1.28, 304.08 1.11, 423.18 0.51 M422.68 1.31 C425.34 74.67, 425.62 153.49, 422.33 299.18 M423.37 -0.66 C424.97 111.34, 424.09 223, 423.06 298.73 M422.3 298.19 C332.06 298.27, 243.1 298.74, 0.95 299.52 M423.45 298.73 C311.76 297.91, 200.64 297.28, 0.42 298.84 M1.44 297.81 C-0.22 223.35, 0.75 146.54, -0.66 0.97 M-0.65 297.87 C-1.83 233.82, -1.3 167.88, -0.12 0.1" stroke="#000000" stroke-width="1" fill="none"></path></g><g stroke-linecap="round" transform="translate(131.89468577773937 118.79207133597163) rotate(0 211.6563986820513 149.2578125)"><path d="M0 0 C0 0, 0 0, 0 0 M0 0 C0 0, 0 0, 0 0 M-0.32 6.94 C0.51 4.81, 1.94 3.61, 4.63 -0.3 M0.1 6.76 C1.15 4.79, 2.05 3.36, 4.97 0.5 M-0.09 13.28 C2.76 8.8, 6.75 4.5, 10.11 -0.26 M0.87 12.57 C3.27 9.65, 4.71 5.42, 10.06 0.3 M-2.03 16.77 C3.95 14.3, 11.08 7.63, 14.72 1.78 M-0.81 19.26 C5.97 12.47, 9.59 7.16, 16.35 0.28 M1.13 22.35 C4.28 18.39, 12.25 11.04, 20.69 0.1 M-0.54 23.86 C8.44 15.23, 16.98 6.02, 21.92 -0.62 M0.97 30.59 C7.7 17.9, 19.77 7.1, 27.23 0.45 M-0.05 30.43 C9.97 19.88, 21.2 7.7, 25.75 -0.03 M-1.33 35.16 C10.94 26.11, 22.4 11.85, 32.37 0.79 M-1.19 36.94 C9.91 25.62, 21.7 12.45, 31.43 -0.13 M-0.52 40.89 C12.16 27.39, 27.19 9.82, 36.1 0.76 M0.05 41.88 C14.14 27.94, 27.12 11.62, 37.5 0.69 M-0.72 49.55 C16.79 32.79, 30.5 15.28, 42.13 -0.82 M-0.74 48.81 C15.13 33.64, 28.76 16.9, 42.46 0.05 M1.64 54.09 C11.74 41.8, 26.23 27.14, 49.11 -0.47 M0.02 55.29 C10.6 42.67, 20.95 28.98, 47.3 -0.08 M1.07 60.11 C11.34 47.93, 26.11 33.94, 52.37 -0.54 M0.37 61.22 C15.27 44.73, 29.51 28.08, 52.43 0.74 M0.16 68.14 C12.77 47.42, 29.55 31.47, 59.24 0.31 M-0.87 67.74 C13.39 51.34, 28.75 34.38, 58.24 -0.2 M0.04 71.38 C20.67 50.24, 44.28 24.43, 62.72 0.57 M-0.27 73.8 C23.67 46.19, 46.23 19.87, 64.1 -0.63 M-1.02 77.47 C28.72 48.65, 52.94 18.51, 68.76 1.42 M-0.05 78.65 C20.56 55.44, 41.37 31.87, 68.81 1.07 M1.44 86.68 C20.31 61.99, 39.01 40.33, 74.04 0.19 M0.3 84.8 C16.4 67.13, 33.44 47.31, 73.64 0.01 M1.33 89.51 C23.78 61.87, 49.87 32.17, 81.17 -0.1 M0.49 92.33 C30.14 57.37, 59.04 22.75, 78.83 -0.88 M-0.88 96.82 C21.25 72.53, 43.57 47.96, 84.48 -1.25 M-0.22 97.85 C29.83 61.8, 59.99 27.86, 84.57 -0.65 M0.34 101.69 C31.32 67.68, 63.41 30.65, 89.23 -0.42 M0.77 102.99 C25.95 73.83, 51.98 42.57, 89.52 -0.05 M-1.85 109.1 C33.36 70.58, 68.93 28.17, 97.4 -0.57 M-0.81 108.95 C30.21 74.88, 59.71 40.66, 95.8 -1.3 M-1.61 114.2 C29 83.89, 53.41 54.26, 98.93 -1 M0.2 115.44 C34.46 76.15, 70.38 34.19, 101.48 0.18 M-1.13 123.83 C37.25 77.77, 74.48 32.95, 105.44 0.17 M0.96 120.98 C35.94 79.66, 72.96 37.18, 105.61 0 M-1.56 126.73 C40.85 79.29, 85.36 31.25, 109.53 -0.52 M-1.09 127.86 C35.4 88.73, 68.66 49.7, 110.67 -0.93 M-0.46 135.31 C40.43 87.24, 79.71 40.28, 117.82 -1.59 M-0.43 134.68 C37.56 90.7, 73.94 47.05, 116.99 0.57 M-1.3 139.44 C47.43 84.93, 94.18 29.35, 121.54 1.08 M0.35 140.82 C46 87.64, 92.08 34.69, 122.44 0.49 M-0.34 144.62 C45.26 96.79, 91.98 44.15, 126.99 0.07 M0.86 145.44 C51.44 87.71, 101.93 29.37, 126.29 0.09 M0.56 153.42 C38.85 107.28, 79.74 59.68, 132.69 -1.26 M-0.52 151.83 C32.3 115.54, 65.4 77.83, 133.4 0.84 M-0.62 160.13 C52.42 98.69, 101.84 41.35, 136.76 0.11 M-0.57 158.11 C54.42 97.13, 106.45 36.4, 137.28 1.04 M-0.32 164.23 C36.11 122.87, 76.31 76.65, 142.18 1.38 M0.88 164.05 C37.36 121.04, 73.69 78.47, 143.84 -0.4 M1.59 171.34 C45.98 120.47, 88.18 68.85, 148.42 -0.47 M-0.83 171.42 C53.42 110.46, 106.81 48.83, 147.73 0.16 M0.27 177.22 C53.37 115.46, 105.59 52.84, 153.78 -1.37 M-0.5 177.3 C33.71 138.92, 66.94 100.39, 153.32 0.05 M1.56 183.84 C34.67 142.75, 65.44 105.72, 157.53 1.44 M-0.69 182.12 C41.74 135.09, 81.95 89.03, 158.69 0.18 M-0.19 190.23 C61.31 117.82, 126.8 44.59, 165.26 0 M-0.43 189.44 C63.1 115.36, 128.71 42.23, 164.25 -0.92 M-0.1 194.35 C46.48 142.18, 92.7 90.81, 170.88 1.16 M0.89 195.16 C47.41 139.85, 95.64 86.13, 168.92 0.76 M-1.02 201.38 C55.41 136.18, 112.79 70.51, 175.63 0.23 M-0.16 201.64 C56.06 138.29, 110.07 73.84, 175.09 -0.82 M1.25 208.34 C40.74 160.63, 82.15 111.77, 179.79 -0.21 M-0.33 207.6 C53.24 148.4, 104.34 89.32, 179.99 0.56 M0.55 213.19 C53.07 153.9, 102.86 94.89, 185.02 -0.16 M0.01 212.91 C71.62 132.75, 142.64 51.46, 185.54 -0.02 M0.91 218.4 C66.93 144.2, 133.67 68.31, 189.68 0.41 M-0.17 219.61 C38.6 173.01, 78.55 127.47, 191.26 0.33 M-0.41 226.3 C54.84 166.2, 107.25 103.69, 197.38 -1.61 M-0.07 225.15 C47.92 170.98, 96.16 114.97, 196.34 0.11 M0.47 232.39 C41.25 181.42, 87.9 130.99, 200.36 -1.03 M-0.79 232.49 C45.54 176.56, 91.17 123.55, 201.73 -0.21 M1.24 237.49 C55.82 172.66, 113.23 109.21, 205.68 0.29 M0.45 237.59 C47.77 184.82, 93.91 130.67, 206.29 0.27 M0.4 244.35 C82.67 147.07, 165.13 52.99, 212.54 -0.53 M0.66 244.33 C42.45 194.95, 85.87 144.66, 211.52 0.47 M-0.81 249.4 C85.61 151.9, 171.88 52.03, 218.36 0.27 M-0.16 250.76 C66.26 175.34, 133.02 98.24, 218.01 0.1 M-0.16 255.72 C74.95 169.78, 150.92 81.62, 222.29 -0.85 M0.1 255.89 C53.25 194.53, 106.54 132.93, 222.98 0.13 M-1.37 261.29 C65 188.82, 129.65 113.07, 227.75 0.87 M-0.6 262.03 C75.94 176.96, 151.16 91.13, 228.08 -0.27 M1.41 266.91 C63.78 194.36, 131.07 118.93, 232.21 -0.01 M0.05 268.26 C72.28 184.21, 145.84 100.14, 233.84 -0.21 M0.45 273.81 C78.78 183.92, 158.13 91.76, 237.48 -0.8 M0.6 274.15 C94.72 165.46, 190.47 56.68, 237.6 0.41 M0.05 280.76 C89.57 178.79, 180.6 73.57, 242.84 0.41 M0.39 281.02 C65.61 206.54, 129.81 132.65, 244.27 -0.5 M-0.52 286.08 C63.43 217.39, 124.5 145.95, 248.47 -0.43 M0.01 286.75 C72.33 201.9, 143.46 119.75, 248.97 0.22 M-1.16 292.01 C74.89 205.12, 150.07 119.64, 255.33 0.73 M0.16 293.22 C98.11 179.66, 197.31 65.73, 254.05 -0.34 M1.33 298.95 C77.47 211.11, 155.13 123.69, 260.41 -0.02 M0.18 298.73 C59.37 230.96, 117.89 162.89, 259.78 -0.06 M4.51 298.31 C78.09 214.12, 151.68 129.87, 264.6 0.5 M5.06 299.29 C71.55 222.12, 136.88 146.13, 264.89 -0.17 M10.82 298.16 C82.92 214.45, 153.75 132.59, 269.87 -0.41 M11.2 298.54 C90.88 207.17, 171.74 114.55, 270.45 -0.1 M15.27 299.35 C94.38 209.25, 170.48 120.28, 275.7 0.86 M15.69 298.15 C89.83 214.86, 162.66 129.93, 275.75 -0.02 M21.88 297.49 C106.55 202.43, 189 105.96, 281.03 -0.79 M21.88 297.93 C98.93 210.3, 175.32 122.45, 280.95 -0.32 M27.18 297.93 C91.73 224.6, 155.24 151.14, 287.42 -0.12 M27.07 298.58 C120.16 190.16, 214.19 81.78, 286.44 -0.7 M32.71 297.9 C108.94 211.21, 185.85 121.73, 291.88 1.16 M32.29 298.08 C136.81 180.87, 239.27 61.78, 290.89 0.36 M37.67 299.23 C133.69 187.96, 229.64 77.29, 296.95 -0.45 M36.81 299.05 C99.12 224.28, 162.63 151.39, 297.54 -0.38 M42.24 297.34 C101.99 231.85, 158.51 167.15, 301.14 0.15 M43.33 298.23 C119.21 208.93, 196.35 119.85, 301.85 -0.08 M47.16 298.56 C111.39 226.02, 175.05 155.07, 306.8 -1.19 M47.91 298.42 C134.97 197.88, 222.88 96.05, 308.15 -0.32 M51.76 298.41 C112.9 230.11, 174.57 160.7, 312.82 -0.61 M52.55 298.75 C143.09 195.26, 232.33 92.27, 312.72 0.18 M59.11 299.68 C155.68 184.1, 253.9 70.12, 317.91 0.5 M58.41 298.21 C145.06 202.04, 229.7 103.88, 318.13 -0.27 M62.93 298.39 C122.59 231.29, 179.95 163.78, 322.49 -0.96 M63.73 299.24 C153.25 195.35, 242.01 92.73, 323.2 -0.18 M68.49 298.76 C131.34 226.68, 193.32 153.92, 329.64 -0.15 M69.43 297.98 C159.65 196.18, 247.42 94.26, 329.3 -0.76 M73.88 298.43 C128.62 235.15, 182.51 173.04, 333.29 0.87 M73.71 298.48 C168.83 191.44, 263.24 82.63, 333.78 0.23 M80.18 298.12 C133.74 237.57, 187.77 177.1, 339.77 0.54 M79.46 298.81 C178.54 182.51, 277.65 68.16, 339.67 -0.82 M84.12 298.22 C175.84 194.05, 266.09 87.58, 344.51 -0.98 M84.24 298.31 C170.98 198.69, 256.55 99.85, 344.57 -0.33 M90.6 299.37 C145.65 234.83, 198.79 171.47, 348.42 -0.58 M90.04 298.69 C173.16 203.54, 254.25 110.48, 349.66 0.48 M96.16 299 C186.28 193.5, 278.44 89.37, 356.16 0.7 M95.55 298.62 C160.1 224.9, 223.65 151.68, 355.34 0.23 M101.47 298.82 C185.51 201.89, 268.83 106.48, 360.73 -0.46 M101.25 298.26 C168.54 220.2, 235.85 141.86, 360.19 -0.13 M106.33 299.02 C167.07 228.89, 228.59 157.95, 366.66 0.93 M106.35 298.51 C199.78 191.06, 293.07 83.59, 365.5 -0.23 M110.64 298.94 C197.29 198.1, 283.71 99.3, 371.36 0.9 M111.61 298.54 C166.56 235.38, 221.48 171.43, 370.97 0.17 M116.3 298.1 C214.89 186.75, 312.04 74.54, 377.45 0.88 M116.18 298.59 C219.25 181.91, 321.64 63.11, 376.39 -0.08 M121.27 299.18 C224.79 179.3, 325.83 62.83, 380.97 -0.29 M122.77 298.6 C177.1 233.65, 233.51 168.76, 380.86 0.32 M126.13 297.63 C199.72 213.83, 273.46 129.23, 386.08 -1.27 M127.62 298.68 C215.51 199.02, 302.16 98.48, 386.71 0.4 M132.65 298.3 C231.96 186.66, 329.75 73.55, 390.92 0.69 M132.54 297.85 C235.01 183.34, 335.43 67.4, 391.83 0.8 M138.91 298.28 C194.24 236.73, 247.24 173.81, 397.74 -1.19 M138.32 298.98 C194.53 232.96, 251.44 168.24, 397.07 0.14 M142.49 298.9 C220.35 208.43, 298.62 118.62, 403.31 0.92 M142.99 298.38 C221.64 208.32, 300.29 118.97, 403.17 0.13 M149.27 297.73 C233.91 200.23, 321.24 101.54, 409.11 0.15 M149.03 298.85 C241.44 194.14, 334.88 87.75, 407.76 -0.42 M153.79 298.3 C238.19 204.22, 320.26 108.72, 414.03 -0.93 M154.69 298.04 C255.19 180.74, 356.87 65.1, 413.82 0.65 M159.44 297.52 C257.74 185.27, 355.17 73.15, 419.91 -1.23 M158.96 298.07 C240.24 204.54, 321.63 111.22, 418.67 -0.51 M165.04 298.43 C244.31 205.08, 327.52 113.11, 424.31 -0.01 M163.71 299.24 C258.43 189.52, 352.24 82.62, 423.51 0.46 M170.05 298.46 C273.7 182.38, 374.54 67.78, 424.71 5.92 M169.27 299.03 C250.39 204.02, 332.26 109.18, 423.44 6.68 M175.14 298.22 C258.26 204.55, 338.7 111.13, 423.26 13.02 M174.66 299.03 C267.48 192.99, 360.94 86.38, 424.58 12.4 M180.16 298.37 C277.13 186.46, 371.88 74.89, 423.56 19.37 M180.84 298.76 C247.44 220.94, 315.37 141.51, 423.75 18.86 M186.33 298.19 C258.71 213.73, 331.68 128.03, 423.49 25.6 M185.2 299.43 C245.15 230.44, 305.15 161.47, 423.53 25.09 M192.01 299 C265.36 215.35, 336.5 133.12, 422.97 29.7 M190.47 298 C271.3 207.15, 351.12 115.79, 424.19 30.23 M195 299.9 C283.17 198.29, 368.71 100.28, 422.56 36.5 M195.59 298.39 C262.48 225.07, 326.65 150.38, 423.86 37.39 M201.07 298.9 C246.42 247.74, 290.21 195.99, 423.33 41.87 M202.04 298.08 C273.88 216.75, 346.06 133.64, 424.32 43.28 M205.94 298.81 C283.84 207.06, 362 118.54, 424.43 48.7 M207.06 299.39 C256.74 243.83, 305.38 188.35, 424.33 49.56 M211.24 298.27 C272.01 229.56, 334.64 159.31, 422.56 56.07 M212.68 298.21 C277.78 222.35, 342.92 146.41, 423.96 55.15 M217.14 300.12 C265.16 242.58, 316.57 183.56, 424.06 61.08 M217.76 298.43 C276.06 232.6, 334.56 165.84, 423.84 61.44 M222.24 299.36 C287.49 229.08, 347.24 158.12, 424.08 66.27 M222.93 297.88 C270.95 241.33, 319.41 184.05, 423.05 67.79 M227.16 300.1 C291.76 224.56, 359.29 147.13, 425.31 74.34 M228.04 298.69 C292.85 223.28, 359.15 148.48, 423.58 73.32 M234.62 297.81 C298.59 220.1, 365.6 144.48, 424.62 79.08 M232.94 298.51 C296.32 225.28, 358.56 152.76, 423.4 78.96 M238.35 299.61 C292.26 235.11, 347.16 169.3, 423.81 86.05 M237.83 298.2 C294.88 230.97, 353.17 164.64, 423.8 85.25 M243.77 296.96 C287.9 249.22, 330.82 198.16, 425.22 90.95 M243.99 299.07 C287.55 247.6, 330.44 198.52, 424.25 91.9 M248.08 298.62 C304.44 233.45, 358.82 170.34, 423.88 99.52 M249.72 298.37 C286.47 252.61, 325.88 208.15, 423.21 98.56 M255.08 299.68 C311.18 235.66, 367.05 170.71, 424.23 104 M255.4 298.91 C307.74 238.28, 358.95 178.93, 423.58 105.14 M260.88 299.39 C311.16 236.04, 363.35 178.18, 422.85 110.2 M259.61 298.06 C312.9 237.22, 366.88 174.56, 424.18 109.57 M265.77 298.15 C317.51 241.38, 369.18 181.86, 422.87 117.22 M265.89 297.8 C315.63 239.7, 366.51 182.23, 423.91 116.8 M269.49 300.04 C329.05 233.8, 384.58 166.55, 422.81 121.13 M270.75 298.15 C323.78 237.9, 376.72 175.67, 424.57 122.23 M277.16 299.62 C311.38 257.65, 349.68 215.35, 424.89 127.43 M276.88 297.73 C325.39 241.69, 374.65 185.34, 423.74 127.78 M280.67 297.35 C321.56 252.47, 359.16 207.36, 423.11 135.43 M281.05 298.47 C320.59 251.35, 361.82 205.87, 424.24 135.33 M287.67 297.76 C327.14 252.75, 365.11 208.2, 422.21 139.7 M285.26 298.75 C323.67 253.03, 361.49 209.7, 423.33 140.56 M292.43 297.32 C341.5 243.34, 390 186.01, 422.58 145.94 M291.2 299.39 C339.33 242.22, 386.86 186.07, 422.71 147.5 M294.93 300.34 C337.94 251.3, 380.4 204.39, 425.24 151.2 M296.23 299.09 C337.06 250.09, 379.79 202.82, 424.25 153.08 M303.78 298.17 C343.88 252.83, 386.75 202.71, 422.54 160.86 M301.3 298.15 C339.77 254.26, 379.66 209.57, 424.22 158.34 M307.17 297.97 C335.01 270.59, 360.77 236.54, 423.13 166.39 M307.49 299.83 C345.22 256.47, 380.94 212.83, 423.13 166.09 M314.41 296.69 C356.74 249.54, 401.27 196.31, 422.89 171.52 M313.12 298.07 C347.31 257.98, 382.65 215.99, 423.93 171.14 M319.25 298.45 C359.51 251.58, 400.6 203.48, 423.26 177.95 M318.22 297.88 C355.53 253.96, 396.59 208.23, 423.68 176.84 M321.65 300.05 C353.94 264.52, 383.71 231.54, 424.41 183.5 M323.55 297.52 C344.22 275.88, 363.4 252.06, 423.91 182.05 M327.04 300.45 C357.64 264.7, 388.52 231.26, 424.46 187.71 M329.07 298.81 C352.56 272.39, 376.44 244.35, 423.1 189.45 M336.03 298.3 C364.56 266.34, 389.99 231.5, 424.57 193.99 M334.95 299.36 C356.94 270.67, 381.94 243.31, 423.04 196.5 M339.68 297.41 C358.99 273.86, 383.23 248.26, 423.49 199.47 M340.08 298.81 C369.91 261.42, 403.19 224.43, 424.6 201.94 M345.28 300.26 C367.35 270.31, 389.38 245.53, 424.07 208.67 M345.04 299.09 C365.56 272.12, 387.16 247.35, 423.53 208.3 M351.54 297.51 C365.51 277.81, 381.48 260.59, 422.36 211.79 M350.64 298.68 C370.41 275.06, 389.14 252.82, 424.77 212.92 M354.41 297.49 C369 282.77, 383.25 267.52, 422.87 218.21 M354.89 298.84 C373.36 278.36, 390.74 258.42, 423 220.15 M362.26 299.69 C384.24 274.17, 405.77 247.28, 423.66 226.73 M359.53 297.87 C376.61 280.28, 392.33 261.49, 422.92 226.4 M365.67 300.28 C383.2 276, 405.07 252.96, 422.86 231.31 M366.99 297.36 C382.76 277.9, 400.17 260.06, 423.11 232.61 M372.7 297.62 C389.55 279.84, 404.42 260.58, 425.21 238.85 M370.91 298.45 C390.59 277.4, 409.8 255.08, 423.71 238.76 M378.58 297.71 C392.49 279.68, 409.15 261.38, 423.16 243.4 M377.17 298.03 C391.52 279.86, 408.06 262.14, 424.88 244.87 M381.01 299.74 C392.92 283.63, 406.8 271.27, 424.1 251.7 M382.32 299.09 C393.3 285.75, 404.07 270.98, 423.2 251.25 M385.88 297.58 C402.42 281.09, 415.41 266.12, 423.49 257.41 M386.64 298.86 C394.48 290.65, 401.07 281.38, 424.07 257.49 M390.55 297.24 C399.96 287.94, 411.53 279.23, 423.35 262.85 M392.64 299.13 C402.64 285.69, 415.02 272.02, 423.48 262.99 M396.92 299.2 C408.56 286.7, 416.41 275.09, 422.8 268.78 M397.36 299.22 C407.25 288.79, 416.38 276.92, 423.77 269.42 M401.96 300.05 C408.44 289.45, 418.48 280.67, 423.2 272.61 M402.17 298.49 C409.81 288.76, 418.11 279.83, 424.01 273.74 M408.27 298.37 C415.33 292.13, 421.81 284.47, 423.32 281.93 M408.58 298.85 C412.81 293.05, 419.01 285.04, 424.47 280.46 M413.24 297.28 C416.61 295.95, 417.98 290.99, 424.23 288.39 M414.31 297.95 C416.26 296.63, 417.89 292.65, 423.09 286.78 M419.04 299.32 C418.95 297.71, 420.99 297.15, 424.35 292.26 M418.74 298.71 C420.94 296.64, 422.71 293.95, 424.17 292.65" stroke="#84c32c" stroke-width="0.5" fill="none"></path><path d="M0.79 0.96 C125.81 -0.13, 252.9 0.97, 423.51 -0.56 M-0.05 -0.07 C95.09 -1.13, 189.15 -1.04, 423.56 -0.1 M423.33 0.57 C421.04 95.83, 421 193.55, 424.01 298.81 M423.97 -0.34 C422.58 104.79, 422.63 209.56, 423.25 297.94 M423.53 298.26 C337.77 299.47, 253.56 300.63, -0.09 298.34 M423.67 298.26 C314.98 297.25, 206.7 297.41, -0.12 298.11 M0.47 298.68 C-0.39 190.84, 0.18 83.48, -0.21 -0.36 M0.65 298.33 C-1.25 198.62, -1.95 99.76, 0.16 0.48" stroke="#000000" stroke-width="1" fill="none"></path></g><g stroke-linecap="round" transform="translate(199.05484202773937 164.67488383597163) rotate(0 151.89573243810185 107.115234375)"><path d="M-1.67 -0.66 L303.99 -1.23 L303.62 215.2 L-1.2 213.47" stroke="none" stroke-width="0" fill="#a3cdf0"></path><path d="M0.05 0.19 C114.68 -1.91, 226.3 -1.01, 303.6 0.26 M0.21 -0.26 C77.89 -0.99, 157.19 -1.47, 303.11 0.56 M302.58 -1.53 C303.39 76.7, 300.92 153.62, 304.63 213.28 M303.67 0.7 C301.33 65.65, 301.85 130.17, 303.07 214.17 M304.85 213.13 C241.58 213.73, 180.91 212.95, 0.37 213.8 M304.47 213.73 C222.4 213.1, 140.66 212.32, -0.38 214.26 M0.88 215.93 C0.96 165.21, 0.23 115.08, 0.01 -0.96 M0.69 214.97 C2 133.91, 1.22 55.44, -0.39 -0.11" stroke="#000000" stroke-width="1" fill="none"></path></g><g stroke-linecap="round" transform="translate(199.6553520216887 163.91902446097163) rotate(0 151.89573243810185 107.115234375)"><path d="M0 0 C0 0, 0 0, 0 0 M0 0 C0 0, 0 0, 0 0 M-0.56 6.35 C1.27 4.37, 3.7 3.37, 5.38 -0.03 M-0.55 6.18 C0.78 4.89, 2.78 3.44, 4.82 0.46 M-1.27 10.55 C3.81 6.56, 8.68 4.02, 10.74 -0.77 M0.32 11.78 C2.52 7.76, 6.54 4.74, 10.12 -0.34 M-0.75 18.25 C3.6 14.18, 11.26 7.6, 14.88 1.57 M-1.12 18.14 C5.47 12.88, 11.23 5.75, 16.48 0.13 M-0.75 22.85 C5.57 19.64, 12.33 12.72, 20.68 -0.18 M-0.69 24.76 C6.83 15.97, 14.18 9.41, 21.36 0.73 M-1.98 29.98 C8.64 21.75, 14.84 12.34, 24.98 -0.13 M-0.61 31.01 C6.87 21.92, 14.71 15.06, 26.62 -0.1 M-1.79 37.59 C9.41 27.22, 18.42 15.94, 32.81 -1.55 M0.17 37.08 C12.84 21.14, 24.15 7.27, 31.99 0.45 M0.06 41.28 C12.39 28.45, 23.68 17.64, 36.65 0.47 M-0.23 42.47 C8.74 30.93, 20.09 20.88, 37.39 -0.27 M-0.06 48.08 C15.62 32.64, 27.83 15.11, 42.17 0.5 M-0.82 48.47 C9.52 37.61, 20.94 23.96, 41.97 -0.14 M-0.62 54.7 C15.92 35.24, 33.89 15.54, 47.51 0.3 M0.6 55.14 C19.88 34.06, 36.81 12.86, 46.57 0.04 M0.4 61.01 C17.1 41.33, 36.65 23.16, 53.01 -1.72 M-0.05 61.62 C16.21 40.22, 34.3 20.65, 52.77 0.72 M-1.44 68.3 C17.93 48.32, 32.27 27.32, 56.45 -0.95 M-0.81 67.04 C11.29 54.12, 22.78 41.23, 57.32 -0.09 M1.49 73.05 C15.78 54.58, 29.73 36.61, 62.83 -1.15 M0.13 73.1 C15.61 53.74, 33.25 34.98, 63.23 -0.61 M-0.56 80.65 C17.9 57, 38.62 34.67, 67.59 -0.86 M0.2 78.53 C18.73 55.96, 39.41 33.6, 68.17 1.02 M-1.66 83.64 C19.54 60.79, 40.95 34.35, 74.38 0.01 M0.77 84.1 C14.89 69.58, 29.65 51.81, 73.56 -1.11 M-0.91 91.29 C19.04 67.93, 40.45 46.51, 78.31 1.76 M-0.31 90.86 C25.26 62.09, 49.05 32.86, 79.02 -0.31 M-1.35 99.73 C25.2 64.3, 53.83 32.81, 83.68 -1.67 M-0.4 97.18 C26.69 64.24, 55.89 32.4, 85.37 -1.15 M0.54 101.78 C23.74 76.53, 49.49 46.09, 91.25 -1.15 M-0.25 103.17 C18.8 82.39, 36.08 60.73, 89.15 0.86 M1.38 108.72 C20.4 88.22, 39.68 63.83, 95.97 1.12 M-0.27 109.28 C28.99 74.19, 60.02 38.21, 95.61 -0.5 M0.02 116.45 C35.92 74.62, 71.5 33.09, 102.27 1.09 M-0.15 115.21 C34.15 75.26, 71.03 35.64, 101.21 0.09 M0.75 123.07 C28.15 88.48, 59.95 53.71, 105.77 -1.58 M-0.37 122.22 C29.76 87.01, 59.18 53.42, 106.63 -0.27 M-1.6 127.09 C25.09 98.08, 52.99 68.43, 112.52 1.91 M0.17 128.1 C44.19 78.3, 87.32 26.27, 111.24 -0.42 M0.88 133.2 C31.04 97.38, 65.54 56.61, 116.15 -0.19 M-0.14 133.68 C44.99 81.57, 90.42 31.84, 115.49 -0.2 M-0.27 142.01 C46.49 86.67, 92.46 30.87, 120.36 1.5 M0.24 141.34 C32.44 104.18, 65.27 65.61, 122.64 0.13 M-0.84 144.3 C33.29 108.13, 64.29 71.52, 125.46 -0.67 M0.3 145.99 C36.31 103.69, 72.48 61.18, 126.59 0.33 M-0.57 150.72 C32.85 117.47, 62 82.61, 133.34 -1.09 M0.9 153.22 C44.35 104.71, 85.69 54.75, 132.22 -0.73 M1.35 157.26 C50.11 100.76, 103.26 40.89, 139.07 0.08 M-0.39 158.82 C39.43 111.46, 79.73 66.36, 137.71 0.75 M-1.24 164.01 C43.49 111.4, 86.11 62.5, 144.43 -0.49 M-0.49 164.3 C29.72 130.81, 59.25 96.85, 143.92 0.7 M1.07 172.39 C54.02 109.09, 106.74 50.35, 148.96 -0.8 M-0.29 170.34 C54.37 106.5, 109.52 43.39, 148.7 0.58 M-0.12 176.34 C50.9 120.33, 100.79 59.99, 152.31 -0.07 M-0.1 177 C35.97 136.88, 69.59 97.78, 153.72 -0.27 M-1.03 181.54 C45.38 134.57, 87.77 83, 159.54 0.1 M-0.03 183.16 C55.85 119.78, 111.42 54.85, 158.92 -0.13 M-1.5 189.22 C47.69 132.54, 97.76 75.76, 163.31 -0.5 M-0.62 189.89 C52.25 128.36, 106.67 66.79, 164.18 -0.71 M0.35 195.04 C55.18 131.91, 108.15 69.83, 169.13 1.43 M-0.11 194.6 C56.47 132.74, 111.83 68.94, 168.93 0.78 M0.06 200.82 C36.75 159.27, 75.34 118.21, 174.48 -0.16 M0.15 201.62 C63.03 128.81, 124.53 59.55, 175.44 -0.71 M1.49 205.46 C42.79 161.09, 80.14 113.07, 180.36 1.07 M0.11 207.47 C46.96 153.62, 92.75 101.24, 180.27 -0.54 M-0.7 213.68 C64.99 141.84, 128.18 68.33, 184.19 -1.67 M0.32 213.56 C69.33 132.29, 138.93 51.1, 185.65 0.1 M2.03 218.09 C53.52 159.97, 101.95 104.66, 190.45 -0.79 M2.69 216.41 C67.97 138.8, 136.67 61.19, 190.83 0.56 M6.86 216.48 C73.95 141.44, 138.03 67.95, 194.84 0.67 M7.71 216.15 C75.68 137.29, 144.22 58.89, 195.65 -0.42 M13.25 216.53 C58.2 165.35, 102.57 114.68, 200.76 1 M12.31 215.96 C71.92 148.03, 131.91 79.47, 201.19 -0.17 M18.04 215.13 C91.97 131.65, 166.59 47.59, 206.71 -0.61 M17.97 216.96 C77.58 146.58, 137.66 79.49, 207.24 -0.88 M23.08 216.06 C80.66 150.23, 135.32 86.88, 210.53 1.56 M24.17 216.91 C73.28 159.11, 124.57 101.61, 211.41 -0.36 M28.73 217.6 C66.44 170.45, 105.45 127.42, 218.02 -1.76 M28.92 216.44 C86.3 149.39, 144.98 83.12, 217.23 -0.94 M35.04 218.14 C99.1 145.77, 162.53 73.03, 222.98 1.1 M33.93 216.2 C77.32 169.36, 120.4 120.48, 222.61 -0.19 M41.36 215.82 C85.77 165.74, 128.19 112.83, 227.93 0 M40.55 215.54 C92.92 155.4, 146.34 94.43, 228 0.19 M44.49 217.23 C114.01 135.65, 182.67 56.76, 233.2 -1.07 M44.37 217.26 C93.32 161.67, 140.98 107, 233.9 0.62 M50.3 215.87 C103.81 157.36, 154.98 96.87, 238.89 1.23 M50.84 215.68 C95.41 164.68, 140.39 113.57, 237.78 0.03 M56.82 215.94 C124.12 140.69, 189.67 63.3, 243.26 -0.58 M56.25 216.48 C110.26 154.31, 164.67 91.22, 243.95 -0.18 M59.86 216.86 C107.04 163.73, 152.99 111.74, 250.24 1.29 M61.85 215.74 C106.3 165.68, 151.06 113.49, 249.33 0.31 M66.28 215.91 C137.85 134.27, 213.09 49.72, 253.18 -0.01 M66.87 216.73 C125.9 148.58, 187.41 78.74, 253.94 0.13 M72.35 216.94 C110.73 170.87, 152.51 125.09, 260.28 0.9 M72.13 216.55 C110.79 172.34, 150.14 127.49, 259.94 0.99 M77.11 217.85 C132.97 149.44, 190.34 83.55, 263.9 0.1 M76.06 216.83 C115.96 170.78, 155.66 125.38, 264.62 0.24 M81.23 217.09 C152.09 135.93, 225.97 51.56, 268.93 -0.93 M82.14 217.17 C143.16 146.04, 205.12 74.59, 270.1 0.23 M88.46 215.48 C141.96 155.31, 192.15 95.31, 274.28 1.31 M87.7 216.07 C139 159.52, 190.32 100.63, 276.24 -0.69 M91.98 218.12 C148.87 151.42, 204.24 85.11, 280.06 -0.1 M92.31 216.39 C142.41 161.09, 191.21 105.14, 281.33 -0.32 M97.43 216.67 C137.93 168.54, 180.49 119.92, 287.17 1.22 M97.66 215.74 C152.66 153.68, 207.21 92.17, 287.08 -0.03 M103 216.11 C146.22 166.62, 190.89 113.25, 292.44 0.5 M103.66 217.22 C160.94 148.07, 219.11 80.26, 291.69 -0.04 M108.06 216.28 C176.61 138.88, 248.38 58.31, 297.28 -0.51 M108.91 216.06 C166.33 151.93, 223.27 86.08, 296.45 -0.7 M114.3 217.52 C153.14 172.62, 191.69 125.34, 302.78 0.07 M114.37 216.36 C162.85 161.45, 211.38 106.09, 301.76 0.65 M119.32 217.29 C175.71 151.51, 234.51 82, 304.33 3.14 M119.37 216.24 C161.85 168.58, 203.09 120.4, 305.76 1.64 M123.8 215.77 C189.68 139.13, 259.01 62.38, 305.15 7.43 M123.66 217.03 C185.84 147.61, 246.1 78.47, 306.62 7.84 M131.18 215.64 C195.85 140.32, 260.07 63.12, 304.38 14.5 M129.53 215.93 C166.86 171.69, 205.54 126.64, 305.27 14.07 M136.51 215.42 C169.44 175.85, 208.07 132.65, 306.91 19.9 M134.82 216.86 C178.18 169.53, 218.24 120.91, 305.44 18.97 M141.36 215.46 C176.93 176.41, 211.12 133.75, 306.74 26.62 M141 216.88 C192.57 155.9, 244.98 96.33, 306.04 26.84 M145.97 217.29 C203.9 151, 261.58 83.86, 304.56 33.11 M146.18 217.01 C200.75 154.49, 255.5 91.38, 305.34 32.94 M151.7 217.07 C187 176.05, 224.33 133.02, 306.58 38.37 M151.74 216.53 C186.33 177.76, 220.46 139.56, 305.31 38.81 M156.09 217.8 C212.16 151.19, 270.55 83.64, 306.41 43.77 M156.96 215.9 C196.37 169.85, 236.45 123.63, 306.33 45 M161.89 216.26 C214.01 159.14, 265.73 100.12, 305.83 51.62 M162.34 216 C199.99 171.36, 240.69 125.63, 305.72 51.74 M165.42 215.33 C218.44 155.1, 274.12 91.45, 306.78 56.6 M167.52 215.85 C208.07 168.92, 248.74 120.13, 305.73 56.27 M172.7 217.86 C207.77 176.93, 241.41 138.62, 306.25 61.38 M172.92 215.34 C212.96 168.01, 255.49 120.68, 306.38 62.25 M177.02 217.95 C202.52 188.94, 228.61 158.05, 304.59 67.55 M177.72 216.37 C226.68 159.81, 277.96 102.01, 306.16 67.68 M182.43 215.04 C221.79 169.5, 265.56 121.29, 305.1 74.41 M183.06 217.08 C232.85 161.72, 282.21 104.6, 305.38 75.1 M188.21 218.18 C214.83 189.26, 237.83 160.95, 307.31 79.42 M188.63 215.64 C230.08 168.18, 271.35 120.93, 305.53 82 M193.71 215.15 C234.24 168.78, 274.27 125.18, 305.24 88.92 M192.91 217.57 C224.31 178.96, 257.92 142.66, 306.59 87.78 M196.8 218.4 C233.97 174.66, 269.54 137.88, 306.01 91.65 M198.93 216.19 C226.4 185.94, 254.61 154.07, 304.91 94.12 M204.51 218.82 C222.79 191.9, 242.77 169.46, 306.98 101.03 M204.11 217.12 C241.2 172.51, 280.98 127.19, 305.55 99.98 M210.04 215.93 C227.73 191.12, 250.32 167.56, 306.92 104.66 M208.58 217.27 C232.95 187.48, 256.84 160.82, 306.79 105.86 M216.06 215.48 C240.81 188, 264.76 158.22, 307.17 110.56 M213.68 217.07 C245.77 181.1, 277.82 143.3, 306.45 112.81 M220.44 214.83 C242.57 191.02, 263.54 165.31, 306.15 116.9 M220.94 216.76 C247.18 185.77, 275.93 153.11, 305.71 116.91 M223.49 216.56 C254.47 180.79, 283.46 148.22, 305.88 125.8 M224.63 216.6 C251.13 185.71, 277.68 152.55, 304.83 123.77 M229.74 217.9 C258.96 184.52, 287.29 151.24, 305.09 129.54 M230.71 217.15 C256.2 186.3, 283.04 155.32, 305.56 129.57 M235.17 216.26 C262.22 187.09, 285.78 158.87, 306.46 136.08 M235.37 217.52 C258.3 192.24, 279.74 165.85, 305.61 135.25 M240.95 214.7 C253.99 199.26, 270.09 183.19, 305.71 143.28 M241.99 215.59 C256.97 199.47, 270.88 181.63, 304.98 141.55 M244.73 215.5 C260.39 200.25, 277.25 179.58, 306.15 148.69 M245.67 216.28 C268.63 192.28, 289.72 166.87, 305.76 147.49 M250.34 217.55 C263.51 200.79, 277.87 186.12, 305.2 155.29 M252.24 215.81 C272.68 191.61, 293.05 167.11, 305.92 154.9 M255.06 217.96 C272.35 201.31, 283.7 185.28, 307.47 161.7 M256.71 215.94 C275.26 194.85, 294.04 175.28, 305.63 159.38 M263.39 217.49 C276.67 200.18, 292.13 181.86, 304.04 167.75 M262.31 216.2 C274.83 202.4, 285.9 190.46, 305.77 166.57 M266.28 218.09 C277.85 202.84, 289.84 190.65, 305.52 172.67 M266.99 216.18 C281.41 202.55, 294.74 185.86, 306.28 173.16 M274.87 216.35 C278.92 208.88, 288.82 199.39, 304.6 176.86 M272.41 215.75 C285.1 202.24, 296.15 190.13, 305.92 179.37 M279.77 217.06 C288.28 202.94, 300.22 194.44, 306.6 183.65 M278.44 217.33 C286.56 205.47, 295.42 195.14, 306.1 185.46 M284.77 214.67 C290.01 210.69, 296.12 201.57, 306.51 189.54 M284.14 216.1 C289.33 209.71, 294.22 203.6, 305.16 190.73 M290.15 214.8 C292.54 210.06, 297.9 205.78, 304.31 197.7 M288.32 216.32 C291.59 212.24, 296.07 207.9, 304.91 197.78 M294.37 215.82 C298.94 212.89, 298.6 208.26, 305.93 204.1 M294.45 215.6 C298.14 211.84, 301.22 206.92, 305.06 203.46 M300.35 217.27 C301.62 213.36, 304.53 211.09, 306.05 208.43 M299.33 216.62 C302.24 213.46, 304.76 210.61, 306.25 209.24" stroke="#4b9ee2" stroke-width="0.5" fill="none"></path><path d="M1.01 1.13 C105.69 0.15, 209.26 1.23, 304.04 1.09 M0.65 -0.05 C71.2 -0.51, 141.41 -0.41, 304.09 -0.33 M305.34 1.57 C304.61 46.88, 303.1 91.37, 304.42 214.16 M303.56 -0.12 C305.94 71.24, 305.98 143.25, 304.65 213.95 M305.03 215.56 C217.8 217.09, 131.1 215.02, -1.11 213.19 M303.52 213.54 C199.32 214.67, 96.57 215.49, 0.12 213.91 M-1.64 213.04 C0.95 136.05, -0.86 53.51, 0.67 1.29 M0.29 214.61 C0.21 150.42, 1.13 88.4, -0.43 -0.25" stroke="#000000" stroke-width="1" fill="none"></path></g><g transform="translate(293.6682719597907 251.25691508597163) rotate(0 54 18)"><text x="0" y="25" font-family="Virgil, Segoe UI Emoji" font-size="28px" fill="#000000" text-anchor="start" style="white-space: pre;" direction="ltr">Content</text></g><g transform="translate(294.2112407097907 124.16707133597163) rotate(0 52 18)"><text x="0" y="25" font-family="Virgil, Segoe UI Emoji" font-size="28px" fill="#000000" text-anchor="start" style="white-space: pre;" direction="ltr">Padding</text></g><g transform="translate(297.7620219597907 76.67879008597163) rotate(0 46 18)"><text x="0" y="25" font-family="Virgil, Segoe UI Emoji" font-size="28px" fill="#000000" text-anchor="start" style="white-space: pre;" direction="ltr">Border</text></g><g transform="translate(297.6370219597907 19.585040085971627) rotate(0 43.5 18)"><text x="0" y="25" font-family="Virgil, Segoe UI Emoji" font-size="28px" fill="#000000" text-anchor="start" style="white-space: pre;" direction="ltr">Margin</text></g></svg>